<svg width="29" height="56" viewBox="0 0 29 56" fill="none" xmlns="http://www.w3.org/2000/svg"><path d="M18.8041 27.3892C18.3736 27.3173 18.1407 26.966 18.1696 26.561L18.4325 27.0549C18.5175 27.2063 18.8111 27.187 18.8041 27.3892Z" fill="#1a1a2e"/><path d="M17.8217 46.0076V46.228L17.3021 46.1733L17.3593 46.3385L16.9554 46.2822V46.1187L17.153 46.1756C17.2316 45.97 17.6015 46.0966 17.8217 46.0076Z" fill="#1a1a2e"/><path d="M2.91177 30.2625C3.14583 30.3001 3.14409 30.0216 3.314 29.8454C3.51801 29.6333 3.83067 29.573 4.00983 29.3228C4.03237 29.5808 3.73127 29.6697 3.57523 29.8183C3.47236 29.9167 3.0418 30.426 2.99903 30.4266C2.96263 30.4266 2.8875 30.3144 2.91177 30.2625Z" fill="#1a1a2e"/><path d="M12.6781 47.7197L12.2331 46.9584C12.1297 46.6302 11.8569 46.3485 11.8124 46.0076L12.4972 47.2031L12.6781 47.7197Z" fill="#1a1a2e"/><path d="M10.771 44.0182L9.75961 42.3061L9.61628 41.9194L10.1133 42.7973C10.3763 43.1591 10.7253 43.5724 10.771 44.0182Z" fill="#1a1a2e"/><path d="M10.9681 47.5335C11.0871 47.7407 11.7228 48.1793 10.9958 48.0749C10.9577 47.7401 10.6646 47.639 10.8299 47.2783C10.9605 47.3087 10.9172 47.4446 10.9681 47.5335Z" fill="#1a1a2e"/><path d="M7.304 45.2889C7.15259 45.3054 7.21269 45.2866 7.18726 45.2076C7.08555 44.8933 7.10924 44.4458 7.18957 44.1287C7.27511 44.1143 7.26124 44.2326 7.27569 44.2933C7.35948 44.6513 7.37278 44.9259 7.304 45.2889Z" fill="#1a1a2e"/><path d="M7.65018 45.5651C7.49992 45.5894 7.54673 45.5435 7.51841 45.4458C7.41323 45.0828 7.54211 44.5751 7.47796 44.1845C7.56754 44.2138 7.58083 44.4607 7.59239 44.5441C7.63631 44.8695 7.64845 45.2358 7.65018 45.5651Z" fill="#1a1a2e"/><path d="M10.4601 46.5645C10.8005 46.4568 10.7623 46.9777 10.6253 47.0015C10.3728 47.0169 10.2549 46.6297 10.4601 46.5645Z" fill="#1a1a2e"/><path d="M8.45928 45.2336C8.46043 45.5446 8.99906 45.6286 8.66213 45.8955C8.56677 45.896 8.2021 45.2911 8.45928 45.2336Z" fill="#1a1a2e"/><path d="M6.60991 21.0359C6.61801 21.0414 6.65788 21.1906 6.65326 21.2193C6.64864 21.2458 6.39493 21.632 6.35794 21.6789C5.40494 22.8817 4.19765 23.8507 3.59372 25.3622L3.14294 25.8423C3.51801 24.902 4.11963 24.086 4.66808 23.2402C5.1258 22.5336 5.6338 21.5657 6.40475 21.0884C6.45792 21.0552 6.56079 21.0022 6.60991 21.0359Z" fill="#1a1a2e"/><path d="M10.5618 13.6119C10.8739 13.8716 11.0108 14.0616 11.2056 14.4058L11.2339 14.2412H11.3483C11.6916 14.7815 12.4608 15.0163 13.0833 15.1804L12.8521 15.2909C12.929 15.4693 13.1977 15.3853 13.3716 15.4002L13.1705 15.1787C13.3393 15.2693 13.6254 15.1632 13.719 15.3444L13.4878 15.3157C13.3248 15.4417 13.6161 15.3605 13.5456 15.482C13.4427 15.6599 12.4811 15.5903 12.3903 15.3455L12.6516 15.3986C12.7255 15.3268 12.7642 15.3439 12.6764 15.2654C12.6348 15.2284 11.9552 14.8655 11.8979 14.8489C11.7153 14.7953 11.9592 15.0964 11.7847 15.013C11.6604 14.9539 11.7714 14.8389 11.7471 14.8041C11.7217 14.7666 11.3651 14.5771 11.3212 14.4616C11.2541 14.5611 11.3472 14.7489 11.1773 14.7925L11.0039 14.4611C10.9322 14.6782 11.2911 15.0599 11.2905 15.2069C11.2905 15.2898 11.1195 15.4903 11.1206 15.6571C11.1218 15.8046 11.3766 16.0063 11.1189 16.0361L10.8877 15.7875L10.8305 16.1184L10.7161 15.7069C10.7987 15.571 10.8791 15.6577 11.0027 15.6765C11.0571 15.5522 10.901 15.4185 10.9137 15.3422C10.9288 15.2483 11.1102 15.0666 11.1096 15.0406C11.1096 15.0091 10.9877 14.9456 10.9588 14.8627C10.9085 14.7168 10.8311 14.387 11.0611 14.4047V14.3517C10.8005 14.2235 10.8091 13.8616 10.5387 13.6644C10.3069 13.4954 10.0081 13.5688 9.96362 13.5213C9.86422 13.4158 10.1428 13.3495 10.2202 13.3567C10.3919 13.3733 10.4653 13.5307 10.5629 13.6114L10.5618 13.6119Z" fill="#1a1a2e"/><path d="M7.85997 17.8675C7.60452 18.2797 7.31845 18.7006 7.0422 19.1034C6.9977 19.168 7.05665 19.2459 6.89946 19.2128C7.05434 18.7294 7.25546 18.2576 7.46698 17.7946C7.57274 17.5637 7.80911 17.2775 7.76692 17.0587L8.22175 17.3068C8.22175 17.3598 7.96284 17.5952 7.91429 17.6714C7.8802 17.7255 7.89638 17.8084 7.85997 17.8675Z" fill="#1a1a2e"/><path d="M20.4801 9.26904C20.7032 9.49058 19.5965 10.2021 19.4393 10.3452C19.1197 10.6375 18.8371 11.0922 18.5158 11.3408C18.317 11.4944 18.2337 11.375 18.3378 11.1706C18.3961 11.0563 18.9324 10.5016 19.0561 10.3933C19.2162 10.253 19.4508 10.1546 19.6144 10.0154C19.8352 9.82758 20.0663 9.49058 20.2455 9.34805C20.3235 9.28617 20.3697 9.25026 20.4801 9.26904Z" fill="#1a1a2e"/><path d="M12.9677 13.3561C12.7995 13.3677 12.3262 13.3351 12.2823 13.1523C12.2719 13.1092 12.3227 12.9225 12.3331 12.9153C12.4585 12.8291 12.6706 13.1506 12.7365 13.0805C12.7018 12.8556 12.7036 12.6164 12.6764 12.3927C12.6556 12.2214 12.6371 12.1612 12.6232 11.9507C12.6082 11.7253 12.488 11.3463 12.7082 11.2038C12.9382 11.2027 12.8203 13.1048 12.9677 13.3561Z" fill="#1a1a2e"/><path d="M14.5281 9.04806L14.4136 9.18562C14.4738 9.33258 14.6292 9.18562 14.7032 9.23645C14.7876 9.29391 14.7396 9.42594 14.7621 9.50494C14.7766 9.55632 14.8696 9.5519 14.876 9.5729C14.9315 9.75355 14.6899 9.83311 14.6119 9.60604C14.3316 9.7077 14.2079 9.65356 14.0409 9.43036C13.971 9.337 13.7878 9.06408 13.9877 9.0011L14.5281 9.04806Z" fill="#1a1a2e"/><path d="M13.6612 8.60499C13.3237 8.4956 13.2907 8.76189 13.1584 8.81548C12.9417 8.90276 12.5128 8.94254 12.2747 8.93646L13.1416 8.71548C13.1567 8.56853 13.1428 8.62598 13.0532 8.60554C12.7625 8.53869 12.562 8.67128 12.2747 8.66023C12.4562 8.40058 12.8573 8.54035 13.1058 8.53427C13.2457 8.53096 13.5444 8.32102 13.6612 8.60499Z" fill="#1a1a2e"/><path d="M1.96975 27.0411C1.90213 27.1002 1.56347 27.2582 1.46753 27.1964C1.6698 26.9069 1.77383 26.6141 2.15989 26.5052C2.21768 26.5787 2.05124 26.9699 1.96975 27.0411Z" fill="#1a1a2e"/><path d="M8.45986 15.4555C8.40842 15.4036 8.9326 14.381 9.0372 14.5169C9.10829 14.7566 8.9326 14.8218 8.85169 14.9743C8.75807 15.1511 8.71934 15.4339 8.45986 15.4555Z" fill="#1a1a2e"/><path d="M13.6606 8.05363L13.3722 8.21827L13.7762 8.21937C13.597 8.43373 13.1873 8.32986 12.9099 8.43925C12.7041 8.24976 13.5369 8.03098 13.6606 8.05363Z" fill="#1a1a2e"/><path d="M11.754 16.4499L11.78 16.282C11.9523 16.1593 12.3591 16.2317 12.336 16.4775C12.3042 16.8179 11.9095 16.4394 11.754 16.4499Z" fill="#1a1a2e"/><path d="M15.2216 13.302C15.2545 13.4589 15.173 13.3898 15.0979 13.4296C14.7621 13.6053 14.4622 13.6064 14.1819 13.3291L15.2216 13.302Z" fill="#1a1a2e"/><path d="M14.7304 8.49505C14.7644 8.48842 14.9032 8.31495 15.0482 8.38511C14.9627 8.82708 14.5032 8.41936 14.2669 8.64035L13.8924 8.49505C14.1414 8.46245 14.4986 8.5398 14.7304 8.49505Z" fill="#1a1a2e"/><path d="M6.37932 20.1519C6.37065 20.5442 6.48566 20.7552 6.05857 20.4276L6.09961 20.1602L6.37932 20.1519Z" fill="#1a1a2e"/><path d="M14.9326 7.7774C14.7171 8.06358 14.2229 7.89176 13.8929 7.99728C13.9409 7.91607 14.1894 7.86635 14.2842 7.84701C14.4911 7.80447 14.7205 7.77685 14.9326 7.7774Z" fill="#1a1a2e"/><path d="M17.9951 11.4783C18.0037 11.4861 18.0378 11.6943 18.0297 11.7026C17.9829 11.7524 17.8691 11.7336 17.8332 11.7689C17.787 11.8142 17.8824 11.9551 17.7367 11.9203L17.5911 11.6999C17.7726 11.8148 17.8257 11.3308 17.9951 11.4783Z" fill="#1a1a2e"/><path d="M12.6591 16.3488C12.8053 16.3052 13.0885 16.3328 13.0249 16.5328C12.955 16.7549 12.325 16.4483 12.6591 16.3488Z" fill="#1a1a2e"/><path d="M9.89831 15.187C9.90351 15.1892 9.89658 15.2456 9.9509 15.2853C9.98211 15.308 10.2647 15.3831 10.1353 15.5113C10.0757 15.5704 9.91103 15.419 9.87404 15.4196C9.81625 15.4201 9.77637 15.5461 9.6735 15.5113C9.64691 15.4201 9.75845 15.1257 9.89831 15.187Z" fill="#1a1a2e"/><path d="M7.8958 16.7681C7.82703 16.7013 7.82298 16.5427 7.82472 16.4505L8.28532 16.6991C8.2021 16.8322 8.01717 16.8864 7.8958 16.7681Z" fill="#1a1a2e"/><path d="M14.9326 8.10888C14.9326 8.20114 14.7361 8.21827 14.6708 8.22048C14.4553 8.22932 14.1796 8.13153 13.9507 8.16302L14.3865 8.05087L14.9326 8.10888Z" fill="#1a1a2e"/><path d="M13.0833 12.9976C13.1012 13.0887 13.2855 13.2738 13.2561 13.4119C13.1636 13.3965 13.0255 13.1633 13.0255 13.1081V12.1965H13.0833C13.1162 12.438 13.0382 12.7711 13.0833 12.9976Z" fill="#1a1a2e"/><path d="M26.26 14.6273C26.108 14.6102 26.086 14.5185 25.9716 14.4616C25.8814 14.9864 25.4491 15.0682 25.0261 14.7848C24.7389 14.5925 24.6886 14.16 24.2644 14.6251C24.1378 14.7638 24.0933 15.0373 23.8645 15.0168C23.6188 14.9947 23.5096 14.4301 23.2715 14.3622C22.8548 14.2428 22.7392 14.7749 22.359 14.7981C21.9336 14.8235 21.8839 14.36 21.666 14.4069C21.4851 14.5312 21.7654 14.6334 21.7533 14.8163C21.7475 14.9019 21.6585 14.9787 21.6574 15.0417C21.6551 15.1643 22.0272 15.5306 21.6643 15.624C21.2927 15.5157 21.5886 15.1997 21.5707 15.1052C21.5528 15.0108 21.2806 14.9174 21.3482 14.7384C21.5088 14.6925 21.4597 14.8345 21.5181 14.8776C21.6025 14.9395 21.6961 14.8428 21.6938 14.8207C21.688 14.7633 21.4013 14.7224 21.5216 14.5727C21.3736 14.5804 21.3066 14.6069 21.2615 14.4616L21.1176 14.5997L21.347 14.7097L20.9442 14.8765L21.347 15.0434C21.3725 15.2146 21.2199 15.0599 21.1494 15.0748C21.0731 15.0909 21.0419 15.1925 21.0581 15.2632L21.2892 15.2356L21.3476 15.4566L20.8853 15.4019V15.5671H21.2898C21.3505 15.7925 20.9731 15.6339 20.9459 15.7643L21.0089 16.1698C21.3488 16.1881 21.1921 16.4416 20.8858 16.2847C20.7922 16.4389 20.9396 16.5952 20.9315 16.6897C20.9234 16.7842 20.7968 16.888 20.7795 16.9891C20.7604 17.1018 20.8263 17.1913 20.8159 17.2946C20.8055 17.4051 20.7275 17.7443 20.7003 17.9023C20.5923 18.5233 20.4143 19.1321 20.3651 19.7658C20.1027 19.7354 20.142 19.5448 20.3651 19.4619L20.1964 19.4315L20.1923 19.1586L20.3645 19.2139C20.4206 19.0669 20.2605 19.1244 20.2478 19.0675C20.1998 18.8559 20.3715 18.5106 20.3744 18.2813L20.5391 18.2741C20.275 18.0161 20.4946 17.8487 20.5362 17.6366C20.5928 17.3443 20.5622 16.8847 20.6067 16.6587C20.6269 16.5571 20.7518 16.4444 20.7581 16.3593C20.7656 16.2615 20.6512 16.188 20.6651 16.1019C20.6789 16.0157 20.8552 15.8952 20.8777 15.8019C20.9066 15.6814 20.7564 15.6273 20.776 15.4969C20.7893 15.408 20.909 15.3312 20.9321 15.2489C20.9904 15.0389 20.7807 14.8036 21.0581 14.5489C20.7055 14.3423 20.5853 14.1241 20.6576 13.7191C20.7298 13.3142 20.7049 13.265 20.7258 12.9015C20.7448 12.5645 20.9419 12.2137 21.3476 12.3076L21.232 13.2473C21.347 13.181 21.4655 13.2572 21.5793 13.2252C21.7701 13.1716 21.9573 12.8556 22.2457 12.8087C22.6832 12.7374 22.8311 12.9269 23.1964 13.0263C23.0409 12.5998 23.5553 11.8678 23.5385 11.559C23.5246 11.3032 23.1056 11.4104 23.0808 11.285C23.0577 11.1446 23.4195 10.9264 23.4224 10.901C23.4258 10.869 23.2114 10.5121 23.2091 10.2922C23.2068 10.09 23.3362 9.8773 23.3536 9.73256C23.3831 9.48892 23.2923 9.11601 23.3183 8.86243C23.3386 8.66521 23.4645 8.52599 23.4882 8.3608C23.5651 7.82491 23.4362 7.12163 23.4703 6.5189C23.4761 6.41504 23.5206 6.36311 23.3987 6.28742C22.9901 7.11114 22.6572 7.9785 22.1862 8.77349C21.4389 10.0353 20.0831 11.1214 19.0925 12.2247C18.9296 12.7755 18.818 12.6589 18.4256 12.8578C18.0332 13.0567 17.1779 14.0114 16.8109 14.355C16.7589 14.4036 16.6502 14.3804 16.6063 14.4467C16.5814 14.4848 16.5393 15.0367 16.5479 15.0953C16.5722 15.2505 16.9502 15.5091 16.9999 15.7174C17.0981 16.1278 17.0207 16.9212 16.7259 17.2571L16.734 17.3267C16.9294 17.4217 16.7594 18.099 16.7144 18.3498C16.6207 18.8658 16.474 19.3763 16.3607 19.8901C16.3451 19.9608 16.2613 20.0613 16.2624 20.0713C16.2676 20.1249 16.5242 20.1044 16.4214 20.3895C16.3491 20.5895 15.8868 20.6917 15.851 21.0641C15.8238 21.3469 15.9648 21.327 16.0405 21.495C16.2896 22.048 16.3705 23.7501 16.3168 24.3783C16.2855 24.7462 16.1295 25.0915 16.0873 25.4567L16.3173 24.96L16.3878 26.9643L16.8953 27.7516L16.7924 28.9532C16.8531 29.2073 17.3651 29.3134 17.4113 29.857C17.4264 30.0338 17.3622 30.1448 17.364 30.2857C17.3744 31.0326 17.5275 31.8138 17.4732 32.5563C17.4524 32.8392 17.4171 33.3375 17.1854 33.5237L17.1264 32.3364L16.9542 31.3144C16.9918 32.6795 17.1819 34.001 17.1293 35.3772C17.1166 35.7098 17.1045 36.4423 17.0299 36.7186C16.9617 36.971 16.5404 37.5091 16.3838 37.8135C16.1746 38.2212 16.033 38.6665 15.7984 39.077C15.31 39.9289 14.2911 41.0587 14.0461 41.9868C13.8519 42.7238 14.854 43.3652 15.1915 43.9657L15.1626 43.6922C15.9191 43.195 16.4803 44.0613 16.4849 44.7176C16.4861 44.8878 16.2942 45.2866 16.4318 45.3767C16.4763 45.406 17.0444 45.4971 17.1571 45.5121C17.7413 45.5883 18.3459 45.6087 18.9353 45.6353C19.5607 45.7712 19.4532 47.1932 19.1515 47.5716C19.044 47.707 18.7394 47.7014 18.7995 47.9633C18.8065 47.9931 19.0579 48.107 19.1405 48.2014C19.3555 48.4467 19.3497 48.8478 19.4948 49.0229C19.5751 49.1202 19.7901 49.1953 19.9034 49.2953C20.0166 49.3953 20.0877 49.5815 20.2172 49.6583C20.472 49.8096 20.4819 49.7367 20.7841 49.9726C20.8442 50.0196 20.9367 50.014 20.9841 50.0566C21.1297 50.1892 21.0413 50.5389 21.1234 50.5881C21.3794 50.6173 22.0943 50.6704 22.2393 50.8742C22.4844 51.2179 22.274 52.7813 22.185 53.2481C22.1249 53.3205 22.033 53.3277 21.9492 53.3542C21.054 53.6443 19.8126 53.8404 18.8614 54.0487C16.8068 54.4989 14.7292 54.9575 12.6585 55.2851C9.3331 54.4989 6.07938 53.4653 2.80254 52.5211C2.82623 52.1504 2.78751 50.4124 2.98112 50.2212C3.13774 50.0665 3.48796 50.2013 3.63591 50.2008C3.66365 50.2008 3.66018 50.1162 3.70526 50.1008C3.80986 50.0643 3.99307 50.087 4.04046 50.0489C4.14679 49.9616 4.14506 49.7759 4.21499 49.6605C4.37681 49.3947 4.6571 49.3715 4.92353 49.261L5.05703 48.6152L5.32865 48.6163C5.40899 48.8959 5.6679 49.0931 5.96611 49.1146C5.97593 49.5439 6.27876 48.9765 6.20363 48.8837L5.85803 48.9942V48.8848C6.27876 48.8141 6.61743 48.5677 6.9925 48.3948C7.19362 48.302 7.80507 48.1622 7.86864 47.9622C8.03739 47.4302 7.17108 46.4302 7.12774 45.8457C6.83184 46.0822 7.30574 46.3722 7.27337 46.6186C6.47699 45.8192 6.25218 44.806 6.04875 43.7563C5.88346 42.9028 5.56214 41.4708 5.92161 40.6863C6.19439 40.0902 6.95956 39.7731 7.07168 39.1052C7.33463 39.3002 7.02949 38.687 7.00464 38.6726C6.922 38.6251 6.3198 38.6538 6.1574 38.4334C6.04644 38.1279 6.56252 38.0616 6.46948 37.7798C5.71586 36.5318 5.02871 35.2357 4.20574 34.0275C3.98787 33.7076 3.69139 33.232 3.43075 32.9607C3.35273 32.8795 2.93893 32.6016 2.92275 32.5746C2.85975 32.4685 2.83664 31.695 2.66962 31.6006C2.5026 31.5061 1.92814 31.6928 2.03505 31.1022C1.50452 30.8962 1.17741 31.5989 0.579259 31.3039C0.382186 31.2067 0.612201 31.2343 0.279315 31.1835C-0.0737973 31.1293 0.233081 30.7962 0.428998 30.6857C0.678084 30.5454 0.846838 30.5658 1.07339 30.4774C1.15661 30.4448 1.56867 30.2807 1.57965 30.2354C1.58543 30.1216 1.43632 30.036 1.41783 29.9493C1.37622 29.7504 1.65131 29.2891 1.11731 29.3261L1.17568 29.2167L0.856663 29.3051C0.602954 29.2891 0.696578 29.0178 0.639363 28.872C0.468875 28.4416 0.1776 28.0024 0.366582 27.5041C-0.0431673 27.5157 -0.0235178 26.9334 0.0232942 26.6505C0.116918 26.0826 1.10748 26.3981 1.17626 26.8406L1.25601 26.8356C1.72066 26.6942 2.76324 24.9688 3.03487 24.502C3.46426 23.7634 3.8012 22.9684 4.24967 22.238C4.76055 21.4066 5.34541 20.8038 5.91178 20.0575C6.34407 19.4873 6.57871 18.8194 6.88732 18.1852C7.02544 17.9007 7.52766 17.1212 7.58083 16.909C7.6236 16.74 7.47391 16.6842 7.48547 16.6035C7.52535 16.3322 7.80333 16.1107 7.89522 15.9428C8.27203 15.2522 8.24371 14.5964 8.97652 13.9953C9.15221 13.8511 9.43482 13.7738 9.48452 13.7351C9.50359 13.7202 9.69893 13.3363 9.67003 13.3053L9.50879 13.3517C9.27935 13.1247 9.30363 12.8799 9.53133 12.6473C9.71453 12.4606 10.1035 12.1998 10.2191 11.9208C10.2503 11.8463 10.1873 11.7717 10.2179 11.7048C10.2422 11.6529 10.3468 11.6115 10.3601 11.5573C10.3774 11.4866 9.75441 10.9601 10.3791 10.7485C10.5046 10.706 10.6323 10.8198 10.7409 10.7104C10.7675 10.6839 11.0831 10.1033 11.0987 10.0574C11.1715 9.84195 11.1229 9.55025 11.279 9.34418C11.2911 9.24087 10.8877 8.99889 10.8074 8.87017C10.7271 8.74144 10.6485 8.45251 10.6485 8.305C10.6473 7.88182 11.0588 6.5747 11.4073 6.31946C11.4708 6.27306 11.7968 6.05097 11.8471 6.0239C12.0037 5.93882 12.3568 5.92335 12.4678 5.85153C12.5285 5.8123 12.4626 5.70955 12.5712 5.66259C12.7694 5.5764 13.0931 5.64878 13.311 5.62613C13.3277 5.79573 13.1457 5.79076 13.0376 5.8344C12.8966 5.89131 12.9336 5.92003 13.0521 5.90346C13.2428 5.87694 13.3982 5.75098 13.6005 5.79076C13.4173 5.40404 13.9681 5.78192 14.0946 5.7891C14.3322 5.80291 14.546 5.65706 14.8575 5.7775C14.8847 5.788 15.2655 6.01671 15.2811 6.0355C15.3609 6.12886 15.332 6.31062 15.4059 6.38631C15.447 6.4283 15.5811 6.44266 15.6539 6.50785C15.7111 6.55923 15.9163 6.79126 15.9405 6.84375C16.0555 7.08959 15.5683 7.41941 15.7383 7.78017L15.4504 7.3382C15.4377 7.67299 15.5342 7.78624 15.7955 7.97353L15.6279 8.06192L15.7383 8.6083C15.5579 8.64753 15.362 8.40279 15.2187 8.58123L15.6521 8.77404L15.681 8.6641L15.7874 8.74476L15.6227 9.82371C15.5493 9.85631 15.5579 9.58947 15.4499 9.71377C15.4071 9.76294 15.6221 10.2745 15.5568 10.4519C15.5314 10.5215 15.4256 10.5226 15.3903 10.5856C15.3435 10.6695 15.3753 10.9308 15.3302 11.0623C15.1522 11.58 14.2611 11.2126 14.238 11.6778C14.2333 11.7739 14.2986 11.8678 14.2963 11.9534C14.2894 12.2009 14.212 12.4219 14.294 12.6965L14.5824 12.6407L14.4096 12.4755L14.8072 12.5799L14.8979 12.4258L15.2175 12.586C15.2199 12.2799 15.4603 12.3667 15.655 12.2573C16.2306 11.9336 16.5341 11.7187 17.1848 11.4529C17.2507 11.4258 17.3622 11.4446 17.4015 11.4137C17.4264 11.3944 17.4928 11.154 17.5356 11.096L17.7026 11.1507C17.6645 10.817 17.9979 10.9463 18.0378 10.9209C18.0823 10.8922 18.388 10.4811 18.4747 10.3961C18.9007 9.98061 19.5 9.55246 19.8317 9.0685C20.0964 8.68178 20.2397 8.23373 20.5113 7.84038C20.9477 7.20837 21.5741 6.61613 22.0163 5.96423C22.3543 5.46591 22.6063 4.91069 22.9334 4.41127L23.0773 4.52065C23.001 4.32011 22.8936 4.14664 22.8618 3.92621C22.8352 3.7439 22.8837 3.47706 22.8375 3.34005C22.8057 3.24723 22.4711 3.16271 22.682 2.87101C22.8126 2.83952 23.1334 2.91797 23.1935 2.78041C22.7086 2.47711 23.2264 1.78266 23.2513 1.45064C23.2628 1.29595 23.0768 1.09098 23.0796 1.06723C23.0854 1.01695 23.249 1.00591 23.2571 0.949555C23.2657 0.886575 23.1929 0.793209 23.2056 0.693214C23.2299 0.498748 23.4744 0.357871 23.509 0.269477C23.5466 0.174454 23.3831 -0.0183543 23.672 0.000981808C23.9072 0.0170031 23.7945 0.180531 23.8616 0.318646C23.9483 0.497091 24.1222 0.808125 24.1164 1.01254C24.1136 1.11198 23.9384 1.27882 23.961 1.44843C23.9725 1.53516 24.0748 1.60643 24.102 1.69261C24.1997 2.00752 24.2164 2.32518 24.1188 2.64229C24.944 2.71632 24.851 3.85549 24.6851 4.42674L24.0743 4.86428L24.0032 5.84656L23.8304 5.73662C23.965 5.95373 23.8847 6.25041 23.9465 6.50951L24.0043 5.9576C24.0899 5.98136 24.1141 6.24599 24.1182 6.3167C24.1494 6.83215 24.1286 7.3393 24.1656 7.86303C24.2124 8.52488 24.2158 9.1917 24.2985 9.84636C24.3372 10.1546 24.4407 10.3132 24.4037 10.6762C24.3927 10.7833 24.2881 10.9331 24.3031 11.0054C24.3297 11.133 24.7163 11.1899 24.5447 11.3717L24.2944 11.4286C24.2436 11.496 24.5794 12.1501 24.6233 12.2993C24.6672 12.4484 24.7597 13.1899 24.8417 13.1937C25.3896 12.7832 26.0456 13.0655 26.4588 13.5125L26.6801 13.4153C26.8414 13.3197 26.6142 13.3003 26.579 13.2506C26.5368 13.1904 26.5524 13.091 26.5148 13.0335C26.4507 12.9352 26.2773 12.87 26.3201 12.7335C26.6772 12.3507 26.9275 12.9357 26.9962 13.2368C27.028 13.3744 26.9893 13.5208 27.0217 13.6545C27.05 13.7738 27.1633 13.8274 27.1864 13.9942C27.2401 14.3837 27.1176 14.5749 26.7801 14.7704C27.1407 15.0019 26.8992 15.1378 26.9078 15.3135C26.9124 15.4019 27.0124 15.5036 27.0067 15.6013C27.002 15.6803 26.9061 15.7301 26.9061 15.8107C26.9061 15.9068 27.0309 16.0129 27.0095 16.124C26.7639 16.1157 26.8026 15.7875 26.6639 15.6538C26.6304 15.482 26.8292 15.677 26.894 15.6268C27.0055 15.5406 26.7489 15.4931 26.7316 15.4295C26.7165 15.3748 26.7882 15.2235 26.72 15.1301C26.5588 15.1036 26.6333 15.1572 26.6056 15.2135C26.5495 15.3295 26.4865 15.4969 26.4888 15.6268C26.3443 15.5262 26.2536 15.5378 26.0849 15.5715C26.0623 15.4594 26.1912 15.4273 26.2004 15.3218C26.208 15.2378 26.1375 15.1494 26.1519 15.0577C26.1791 14.8809 26.3761 14.9229 26.2582 14.6323C26.2987 14.6367 26.7685 14.6285 26.7946 14.6218C27.0887 14.55 27.124 14.0318 27.009 13.8036C26.8622 13.7694 26.8703 13.9296 26.7963 13.9721C26.5703 14.1025 26.2681 13.9743 26.0271 13.9688C25.93 14.3008 26.1617 14.3964 26.2582 14.6323L26.26 14.6273ZM23.6015 1.86553L23.312 1.89371C23.4744 2.14287 23.3276 2.3633 23.4299 2.63842H23.6015V1.86553ZM24.0055 1.86609H23.7749L23.8044 2.58373C24.0113 2.61633 23.9517 1.99315 24.0055 1.86609ZM23.9477 5.34603L23.9205 4.68252L23.4287 4.4074C23.4686 4.65324 23.4651 4.90572 23.4882 5.15101C23.5345 5.63828 23.5437 6.1482 23.5651 6.65425C23.5778 6.95258 23.6298 7.25478 23.6015 7.55642H23.7743C23.7743 7.49233 23.7784 7.42714 23.7772 7.36195C23.7645 6.76695 23.7269 6.23052 23.6634 5.64546C23.6304 5.3394 23.6379 4.99522 23.6015 4.68308L23.8321 4.76595C23.442 4.84605 23.7518 4.88693 23.8159 4.9698C23.8292 4.98693 23.8275 5.33664 23.9477 5.34603ZM14.9326 7.7774C14.7205 7.77685 14.4911 7.80447 14.2842 7.84701C14.1894 7.86635 13.9409 7.91607 13.8929 7.99728C14.2229 7.89176 14.7171 8.06358 14.9326 7.7774ZM13.6606 8.05363C13.5369 8.03098 12.7041 8.24976 12.9099 8.43925C13.1873 8.32986 13.597 8.43373 13.7762 8.21937L13.3722 8.21827L13.6606 8.05363ZM14.9326 8.10888L14.3865 8.05087L13.9507 8.16302C14.1796 8.13153 14.4553 8.22932 14.6708 8.22048C14.7361 8.21827 14.9326 8.20114 14.9326 8.10888ZM14.7304 8.49505C14.4986 8.5398 14.1414 8.46245 13.8924 8.49505L14.2669 8.64035C14.5032 8.41936 14.9627 8.82708 15.0482 8.38511C14.9032 8.31495 14.7644 8.48842 14.7304 8.49505ZM13.6612 8.60499C13.5444 8.32102 13.2457 8.53096 13.1058 8.53427C12.8573 8.54035 12.4562 8.40058 12.2747 8.66023C12.562 8.67128 12.7625 8.53869 13.0532 8.60554C13.1428 8.62598 13.1567 8.56853 13.1416 8.71548L12.2747 8.93646C12.5128 8.94254 12.9417 8.90276 13.1584 8.81548C13.2907 8.76189 13.3237 8.4956 13.6612 8.60499ZM14.5281 9.04806L13.9877 9.0011C13.7878 9.06408 13.971 9.337 14.0409 9.43036C14.2079 9.65356 14.3316 9.7077 14.6119 9.60604C14.6899 9.83311 14.9315 9.75355 14.876 9.5729C14.8696 9.5519 14.7766 9.55632 14.7621 9.50494C14.7396 9.42594 14.7876 9.29391 14.7032 9.23645C14.6292 9.18562 14.4738 9.33258 14.4136 9.18562L14.5281 9.04806ZM20.4801 9.26904C20.3697 9.25026 20.3235 9.28617 20.2455 9.34805C20.0663 9.49058 19.8352 9.82758 19.6144 10.0154C19.4508 10.1546 19.2162 10.253 19.0561 10.3933C18.9324 10.5016 18.3961 11.0563 18.3378 11.1706C18.2337 11.375 18.317 11.4944 18.5158 11.3408C18.8371 11.0922 19.1197 10.6375 19.4393 10.3452C19.5965 10.2021 20.7032 9.49058 20.4801 9.26904ZM12.9677 13.3561C12.8203 13.1048 12.9382 11.2027 12.7082 11.2038C12.488 11.3463 12.6082 11.7253 12.6232 11.9507C12.6371 12.1612 12.6556 12.2214 12.6764 12.3927C12.7036 12.6164 12.7018 12.8556 12.7365 13.0805C12.6706 13.1506 12.4585 12.8291 12.3331 12.9153C12.3227 12.9225 12.2719 13.1092 12.2823 13.1523C12.3262 13.3351 12.7995 13.3677 12.9677 13.3561ZM17.9951 11.4783C17.8257 11.3308 17.7726 11.8148 17.5911 11.6999L17.7367 11.9203C17.8824 11.9551 17.787 11.8142 17.8332 11.7689C17.8691 11.7336 17.9829 11.7524 18.0297 11.7026C18.0378 11.6943 18.0037 11.4861 17.9951 11.4783ZM13.0833 12.9976C13.0382 12.7711 13.1162 12.438 13.0833 12.1965H13.0255V13.1081C13.0255 13.1633 13.1636 13.3965 13.2561 13.4119C13.2855 13.2738 13.1012 13.0887 13.0833 12.9976ZM24.1216 13.1904C24.061 12.9545 24.0396 12.7092 23.976 12.4733C23.9592 12.4103 23.9801 12.2938 23.8911 12.307C23.8466 12.6241 23.75 12.8645 23.8333 13.1898L24.1216 13.1904ZM23.4853 13.0252L23.457 12.4181C23.3079 12.5446 23.2103 13.023 23.4853 13.0252ZM15.2216 13.302L14.1819 13.3291C14.4622 13.6064 14.7621 13.6053 15.0979 13.4296C15.173 13.3898 15.2545 13.4589 15.2216 13.302ZM10.5618 13.6119C10.4641 13.5313 10.3913 13.3733 10.2191 13.3572C10.1416 13.3501 9.86306 13.4164 9.96246 13.5219C10.007 13.5694 10.3058 13.4959 10.5375 13.665C10.808 13.8622 10.7993 14.2246 11.0594 14.3522V14.4053C10.8299 14.3876 10.9074 14.7174 10.9577 14.8633C10.9865 14.9461 11.1079 15.0097 11.1085 15.0411C11.1085 15.0671 10.9276 15.2489 10.9126 15.3428C10.9004 15.419 11.0559 15.5527 11.0016 15.677C10.8785 15.6588 10.7976 15.5715 10.7149 15.7074L10.8294 16.119L10.8866 15.7881L11.1177 16.0367C11.3755 16.0063 11.1206 15.8052 11.1195 15.6577C11.1183 15.4908 11.2894 15.2903 11.2894 15.2074C11.2894 15.0605 10.9305 14.6787 11.0027 14.4616L11.1761 14.7931C11.346 14.7489 11.2524 14.5611 11.32 14.4622C11.3645 14.5776 11.7205 14.7671 11.7459 14.8047C11.7696 14.8395 11.6593 14.955 11.7835 15.0135C11.9586 15.0964 11.7147 14.7953 11.8968 14.8494C11.954 14.866 12.6336 15.229 12.6752 15.266C12.7631 15.3444 12.7244 15.3279 12.6504 15.3991L12.3892 15.3461C12.4799 15.5908 13.4416 15.661 13.5444 15.4826C13.615 15.361 13.3237 15.4422 13.4867 15.3163L13.7178 15.345C13.6242 15.1638 13.3381 15.2699 13.1694 15.1793L13.3705 15.4008C13.1965 15.3859 12.9272 15.4699 12.8509 15.2914L13.0821 15.1809C12.4597 15.0168 11.6905 14.782 11.3472 14.2423H11.2327L11.2044 14.4064C11.0091 14.0622 10.8727 13.8716 10.5606 13.6125L10.5618 13.6119ZM20.9321 13.6462C20.8824 13.618 20.824 13.6362 20.7708 13.6329C20.6807 14.0622 20.8061 14.4108 21.3187 14.4108C21.7816 14.4108 21.781 14.26 21.7516 13.8539C21.5279 13.9092 21.2355 13.9158 21.0338 13.7926C20.9691 13.7534 20.9494 13.6561 20.9321 13.6462ZM22.6682 13.8611C22.5693 13.8418 22.4381 13.6705 22.3572 13.797L22.3307 14.2406C22.3856 14.302 22.7601 13.9832 22.6682 13.8611ZM25.4723 14.2799C25.385 14.1467 25.389 13.9268 25.1885 13.9075C24.7256 13.8639 25.307 14.5279 25.5659 14.3506C25.5907 14.2655 25.4908 14.308 25.4723 14.2799ZM8.45986 15.4555C8.71934 15.4339 8.75807 15.1511 8.85169 14.9743C8.9326 14.8218 9.10829 14.7566 9.0372 14.5169C8.9326 14.381 8.40842 15.4036 8.45986 15.4555ZM9.89831 15.187C9.75845 15.1257 9.64691 15.4201 9.6735 15.5113C9.77637 15.5461 9.81625 15.4201 9.87404 15.4196C9.91103 15.419 10.0757 15.5704 10.1353 15.5113C10.2647 15.3831 9.98211 15.308 9.9509 15.2853C9.89658 15.2456 9.90351 15.1892 9.89831 15.187ZM11.754 16.4499C11.9095 16.4394 12.3042 16.8179 12.336 16.4775C12.3591 16.2317 11.9523 16.1593 11.78 16.282L11.754 16.4499ZM13.0249 16.5328C12.955 16.7549 12.325 16.4483 12.6591 16.3488C12.8053 16.3052 13.0885 16.3328 13.0249 16.5328ZM7.8958 16.7681C8.01717 16.8864 8.2021 16.8322 8.28532 16.6991L7.82472 16.4505C7.82298 16.5427 7.82703 16.7013 7.8958 16.7681ZM13.8351 17.7764C14.0322 17.6101 14.0871 17.2692 14.1264 17.0322C14.1328 16.993 14.2189 16.8339 14.0946 16.8383C14.0259 16.8405 13.9074 17.6532 13.8351 17.7764ZM7.85997 17.8675C7.89638 17.8084 7.8802 17.7255 7.91429 17.6714C7.96284 17.5952 8.22175 17.3598 8.22175 17.3068L7.76692 17.0587C7.80911 17.2775 7.57274 17.5637 7.46698 17.7946C7.25546 18.2576 7.05434 18.7294 6.89946 19.2128C7.05665 19.2459 6.9977 19.168 7.0422 19.1034C7.31845 18.7006 7.60452 18.2797 7.85997 17.8675ZM14.0085 18.1078C14.2882 17.8659 14.3611 17.4046 14.3541 17.0582C14.2449 17.0753 14.2599 17.1747 14.2322 17.2449C14.1253 17.5173 14.0368 17.8156 14.0085 18.1078ZM9.73071 17.335L9.21752 17.7554C8.86267 18.7288 8.11079 19.5249 7.58141 20.3901C7.19651 21.0199 6.93471 21.727 6.50762 22.3469C5.37084 23.9965 3.70526 25.523 2.63263 27.261C2.35349 27.7129 2.46387 27.8847 2.35176 28.3184C2.29339 28.5433 2.09689 28.8582 1.98709 29.0753C2.22808 29.3714 2.41533 29.1228 2.58119 29.1659C2.63956 29.1813 2.9083 29.3637 2.93951 29.4333C3.13889 29.1178 3.43999 29.0046 3.74167 28.8162C3.87401 28.7339 3.8561 28.5648 4.15026 28.6035C4.56752 28.6582 4.21846 28.9493 4.19361 29.03C4.15084 29.1664 4.21095 29.3101 4.1387 29.4747C4.03872 29.7029 3.53362 29.9454 3.49836 30.1382C3.46311 30.331 3.75265 30.3835 3.77923 30.5691C3.80582 30.7548 3.62377 30.9945 3.67058 31.1619C3.73069 31.3752 4.25487 31.6033 4.3248 31.7011C4.39472 31.7989 4.3953 32.0575 4.44385 32.195C4.7409 33.0403 5.46042 34.0093 5.92623 34.8109C6.29899 35.4534 6.65326 36.107 7.01331 36.7561C7.01215 36.908 7.01331 36.8837 6.94396 36.7672C6.19092 35.4882 5.42921 34.2043 4.64265 32.9425C4.60509 32.8823 4.58255 32.8198 4.5866 32.7491L4.47679 32.8265C5.56156 34.8341 6.94453 36.6931 7.88193 38.7709C8.00618 38.7731 7.90216 38.5709 7.88309 38.5207C7.68832 38.0108 7.34966 37.45 7.07688 36.9694C7.48027 36.4556 7.15432 35.7617 7.03122 35.1916C6.85091 34.3551 6.7047 34.0491 7.1653 33.2524C7.48432 32.7005 8.45061 31.7646 8.50436 31.1619C8.52458 30.9371 8.37548 30.6354 8.51649 30.3736L8.37086 30.3791C8.25065 30.1802 8.47084 29.7255 8.46043 29.5217C8.4587 29.488 8.35641 29.4957 8.34485 29.4526C8.27723 29.2023 8.50031 28.9753 8.40206 28.7167C8.54654 28.6924 8.51129 28.7388 8.53672 28.8405C8.56677 28.9626 8.45234 29.0797 8.63266 29.0476C8.5321 28.6002 8.62977 28.1687 8.69045 27.7223L8.51823 27.9427C8.47199 27.4881 8.6026 27.0384 8.63266 26.5892C8.64999 26.3351 8.73032 25.2158 8.66097 25.0716C8.61012 24.9661 8.41131 24.9081 8.41651 24.7213C8.42113 24.56 8.73148 24.1103 8.78407 23.8562C8.84649 23.5534 8.76442 23.1706 9.00888 22.8607C9.08228 22.7678 9.18284 22.7723 9.21058 22.7496C9.28456 22.6883 9.04529 22.7286 9.09615 22.6132L9.50417 22.2723C9.45447 21.8215 9.09268 21.7988 9.40823 21.3364C9.67639 20.9431 10.0509 21.1939 10.274 21.042C10.3214 21.0099 10.3011 20.9259 10.33 20.895C10.5184 20.6939 10.6889 20.6779 10.4814 20.4033C10.3872 20.2779 10.185 20.189 10.133 20.1149C10.0272 19.9641 9.95206 19.5895 9.85728 19.3984C9.7625 19.2072 9.47296 18.8653 9.45447 18.7332C9.43597 18.6012 9.64229 18.0333 9.67466 17.8023C9.68621 17.7189 9.63593 17.6355 9.64576 17.5499C9.65269 17.488 9.7625 17.43 9.73129 17.3366L9.73071 17.335ZM14.4697 18.8813C14.5743 18.41 14.6679 17.9294 14.6431 17.4449L14.5217 18.2393C14.4535 18.404 14.3628 18.5603 14.3553 18.7437C14.3507 18.8586 14.32 18.9023 14.4697 18.8813ZM13.2347 18.1427C13.3341 18.0449 13.3913 17.9786 13.5069 17.8775C13.5514 17.8388 13.6756 17.7907 13.5751 17.7217L12.3938 18.4156L11.5812 19.2128C11.8633 19.1664 12.6984 18.7167 12.859 18.5238C12.9301 18.4382 12.8296 18.3404 12.9394 18.2741L12.9966 18.3841C13.0544 18.2725 13.1572 18.2189 13.2347 18.1427ZM13.2566 18.6056L12.7949 18.9095C12.7157 19.0559 13.0012 18.8758 12.9099 19.0189C12.8324 19.1398 12.6238 19.2597 12.6221 19.4337C12.9145 19.2227 13.1804 18.9614 13.2566 18.6056ZM14.2484 19.1514L14.1524 18.8824C13.9201 19.1117 13.7785 19.452 13.8929 19.7652C14.2085 19.7956 14.2322 19.3675 14.4119 19.1846L14.2484 19.1514ZM13.7184 19.7658L13.4549 19.5487L13.5167 19.2686C13.3081 19.4012 13.2792 19.8155 13.5728 19.8542C13.6063 19.8586 13.7398 19.8337 13.7184 19.7658ZM12.5053 20.1514C12.651 20.1348 13.3485 19.8365 13.1983 19.6547C12.9659 19.7989 12.677 19.9448 12.5053 20.1514ZM15.1638 19.6553C15.0615 19.7138 14.4957 19.742 14.5287 19.9028C14.568 20.0967 15.121 19.7354 15.1638 19.6553ZM15.7411 19.9868C15.64 19.9448 15.054 20.2193 15.1638 20.3177C15.3302 20.3066 15.4903 20.2077 15.6267 20.1232C15.6955 20.0807 15.7752 20.1359 15.7411 19.9868ZM6.37932 20.1519L6.09961 20.1602L6.05857 20.4276C6.48566 20.7552 6.37065 20.5442 6.37932 20.1519ZM6.60991 21.0359C6.56079 21.0022 6.45792 21.0552 6.40475 21.0884C5.6338 21.5657 5.1258 22.5336 4.66808 23.2402C4.11963 24.086 3.51801 24.902 3.14294 25.8423L3.59372 25.3622C4.19765 23.8507 5.40494 22.8817 6.35794 21.6789C6.39493 21.632 6.64864 21.2458 6.65326 21.2193C6.65788 21.1906 6.61801 21.0414 6.60991 21.0359ZM14.3478 21.4723C14.3559 21.4668 14.4385 21.3071 14.3547 21.2856L13.4306 21.0364C13.3884 21.2176 13.6213 21.1414 13.6907 21.2585C13.7288 21.3232 13.7011 21.4364 13.7288 21.4685C13.7791 21.527 14.3114 21.4977 14.3478 21.4723ZM10.7716 21.4232C10.604 21.3955 10.5248 21.5176 10.4248 21.616L10.541 21.6712L10.4242 21.8386L10.6554 21.8646C10.5311 21.5878 10.6589 21.6347 10.7716 21.4232ZM15.8579 22.5828C16.0671 22.4822 15.9527 22.0828 15.896 21.9104C15.8787 21.8568 15.8174 21.6988 15.7423 21.6994C15.7862 22.0071 15.9139 22.2563 15.8579 22.5828ZM14.7575 22.0336C14.6015 21.9905 14.6292 22.1701 14.5287 22.2795C14.3946 22.4248 13.9825 22.7905 13.8184 22.8712C13.7167 22.9209 13.2173 22.9899 13.2572 23.1623C13.3254 23.4595 14.1345 22.8424 14.2524 22.7491C14.3449 22.6756 14.4165 22.4922 14.5315 22.4436C14.5968 22.4159 14.6754 22.4723 14.6928 22.4623C14.713 22.4507 14.9372 22.1651 14.9893 22.1132C14.8956 21.9867 14.8743 22.0557 14.7881 22.1408L14.7575 22.0336ZM13.0833 22.6375C13.2468 22.6612 13.7259 22.4397 13.7103 22.2889C13.7022 22.2099 13.5508 22.0021 13.4884 22.117C13.4855 22.3933 13.2376 22.4623 13.0833 22.6375ZM14.9904 22.3071C14.8413 22.2712 14.8887 22.3546 14.839 22.4099C14.6853 22.5811 14.3246 23.0645 14.1761 23.1579C13.9305 23.3126 13.3191 23.4523 13.0445 23.3087L12.9671 23.4104C13.86 23.6916 14.6471 23.0336 14.9904 22.3071ZM11.1761 23.5219C11.0854 23.2965 11.1137 22.9496 11.0588 22.6662C11.0414 22.5761 11.0964 22.5706 10.9455 22.5833C10.9293 22.9949 10.9871 23.4104 11.1195 23.7982C11.2281 23.7987 11.168 23.5965 11.1761 23.5219C11.2507 23.707 11.2692 23.8711 11.3345 24.065C11.3657 24.1578 11.309 24.2109 11.4656 24.1855C11.52 23.9943 11.3634 23.8136 11.3518 23.6545C11.3356 23.4258 11.4685 23.1336 11.3495 22.8601C11.2235 22.9087 11.3194 23.1507 11.2911 23.2634C11.2801 23.3081 11.2062 23.2507 11.1761 23.5219ZM11.7535 22.6938C11.6211 22.6723 11.6402 22.7049 11.6101 22.8021C11.5223 23.0838 11.4818 23.4601 11.5812 23.7429L11.7535 22.6938ZM14.7598 27.6654C14.6356 27.5422 15.1702 26.813 15.2089 26.6312C15.2696 26.3445 15.2216 25.9964 15.2956 25.6644C15.3603 25.376 15.5152 25.0832 15.5874 24.7832C15.7169 24.2451 15.8041 23.7009 15.9105 23.1584L15.7706 22.9695C15.7747 23.3236 15.7822 23.5385 15.6914 23.8877C15.4614 24.7733 15.2331 25.8113 14.9609 26.6699C14.8222 27.1074 14.4685 27.4649 14.6442 27.9411C14.7725 28.046 15.3406 27.5549 15.3944 27.4151C15.4204 27.3477 15.3794 27.3052 15.3094 27.3339C15.1742 27.3892 15.017 27.7311 14.7598 27.6654ZM11.1177 24.4059C10.997 23.9446 10.7508 23.5667 10.7126 23.0805C10.5635 23.1629 10.7733 23.4424 10.7126 23.5772L10.4826 23.1358C10.5907 23.3965 10.3635 23.4739 10.3641 23.4954C10.3659 23.5733 10.6011 24.1368 10.7692 23.9888L11.1177 24.4059ZM12.0124 24.2705C11.9303 24.0761 11.865 23.8822 11.7829 23.6882C11.7442 23.8114 11.806 24.0054 11.8401 24.1308C11.9725 24.6158 12.1649 25.2633 12.3799 25.7141C12.4955 25.9566 12.6706 26.3533 12.9677 26.3947C13.033 26.3334 11.9939 25.1213 12.2759 24.8241L12.1736 24.7838C12.2765 24.591 12.073 24.4158 12.0124 24.2705ZM10.8294 25.3998C10.8808 25.3467 10.4011 24.1788 10.252 24.0744C10.2532 24.4965 10.3867 24.9291 10.6461 25.2716C10.6982 25.3401 10.7063 25.4252 10.8294 25.3998ZM13.0388 24.6153C13.0474 24.6302 13.3058 24.7893 13.3445 24.7937C13.6531 24.8269 13.8588 24.5197 13.693 24.2926C13.6386 24.2186 13.1705 24.1479 13.0792 24.2092C13.007 24.2578 12.9972 24.5473 13.0388 24.6153ZM10.2485 24.7396C10.2127 24.7164 10.0763 24.7285 10.0497 24.7943C10.0728 24.9501 9.94166 25.0025 9.91218 25.06C9.81625 25.2495 9.56889 26.2323 9.56312 26.4273C9.55329 26.777 9.76712 27.3273 9.44291 27.6096C9.21809 27.2179 9.59432 26.9367 9.49954 26.5047C9.4117 26.5257 9.35622 26.634 9.33946 26.7096C9.29033 26.9279 9.2337 27.4019 9.21231 27.6378C9.20422 27.7295 9.18053 28.1273 9.2493 28.1643C9.59375 28.2913 9.74401 28.0295 9.85959 27.7593C10.0122 27.4035 10.2081 25.8257 10.1763 25.434C10.167 25.3224 10.0659 25.2395 10.0792 25.1235L10.5404 25.3992C10.5808 25.3583 10.2797 24.7589 10.2485 24.7385V24.7396ZM11.1443 24.9335C11.1056 24.8871 11.0709 24.8385 11.031 24.7932C10.9519 24.7766 10.9212 24.797 10.9455 24.8749C11.0467 25.1959 11.3489 25.592 11.494 25.8975C11.6564 26.2401 11.6673 26.5986 11.943 26.8522L12.273 27.5002C12.3077 26.9997 11.9037 26.592 11.7107 26.1876C11.5627 25.8771 11.3241 25.1473 11.1443 24.9335ZM13.7196 26.1732C14.4738 26.1301 14.9101 25.5533 15.1054 24.9031C14.8598 25.1793 14.7766 25.5246 14.4512 25.7677L13.7196 26.1732ZM11.6379 26.5605C11.4882 26.1831 11.3148 25.7296 11.0033 25.4556C11.1409 25.8528 11.309 26.2721 11.6379 26.5605ZM14.8459 25.7881C14.8153 25.7909 14.5379 26.1467 14.4402 26.2279C14.2882 26.3539 13.493 26.7555 13.489 26.8091C13.4838 26.8864 13.6369 26.8942 13.7219 26.8676C13.9161 26.8069 14.7315 26.1439 14.8662 25.9716C14.9222 25.8997 14.9303 25.781 14.8459 25.7881ZM1.96975 27.0411C2.05124 26.9699 2.21768 26.5787 2.15989 26.5052C1.77383 26.6141 1.6698 26.9069 1.46753 27.1964C1.56347 27.2582 1.90213 27.1002 1.96975 27.0411ZM13.1994 31.6431C13.3029 31.6564 13.3508 31.6188 13.3578 31.5166C13.4526 30.1852 14.1646 29.1637 14.457 27.9565C14.4801 27.8604 14.4738 27.7626 14.4697 27.666L13.6774 29.5874C13.5242 30.2736 13.1977 30.9277 13.1994 31.6431ZM14.7598 29.5438C14.9881 29.2974 15.2667 28.9405 15.2788 28.6051L14.7598 29.5438ZM2.91177 30.2625C2.8875 30.3144 2.96263 30.4266 2.99903 30.4266C3.0418 30.426 3.47236 29.9167 3.57523 29.8183C3.73127 29.6697 4.03237 29.5808 4.00983 29.3228C3.83067 29.573 3.51801 29.6333 3.314 29.8454C3.14409 30.0216 3.14583 30.3001 2.91177 30.2625ZM16.2041 30.152C16.0706 30.1194 16.0399 30.2691 15.9862 30.3564C15.9411 30.4288 15.6625 30.9006 15.6845 30.9249C15.7718 31.0221 15.8111 30.8492 15.833 30.8205C15.9839 30.6255 16.1434 30.3901 16.2041 30.152ZM9.69951 30.6802C9.64634 30.6006 9.56485 30.5327 9.55734 30.4282C9.43771 30.4216 9.52093 30.5846 9.5452 30.6332C9.70124 30.9437 9.94339 31.3857 10.1266 31.6801C10.1821 31.7691 10.2312 31.9497 10.367 31.9188C10.2104 31.4812 9.95957 31.0691 9.69951 30.6802ZM16.3202 30.9802L16.4347 30.594C16.0613 30.9244 15.9885 31.4359 15.7995 31.8641C15.9313 31.8818 15.948 31.8669 16.022 31.7735C16.1081 31.6652 16.6051 30.9354 16.5497 30.8702L16.3202 30.9802ZM14.0652 30.9255C13.9808 30.8454 13.5676 31.4055 13.5231 31.484C13.3873 31.726 13.2977 32.0304 13.3144 32.3061L13.5924 31.6608L14.0652 30.9255ZM15.395 31.0912C15.2672 31.0708 15.154 31.3083 15.1043 31.3934C15.0199 31.5387 14.7304 32.0945 14.7009 32.2232C14.6939 32.2536 14.687 32.3143 14.7304 32.3066L15.106 31.9204L14.8754 32.9696C15.3458 32.4331 15.2696 31.7359 15.395 31.0912ZM14.4703 31.3122C14.3067 31.2807 14.3778 31.3569 14.3368 31.4304C14.1721 31.7249 14.0761 32.0547 13.8351 32.3055C14.0033 32.4519 14.4616 31.4254 14.4703 31.3122ZM16.4924 31.8094C16.4214 31.7392 16.0463 32.2525 16.007 32.3116C15.922 32.4386 15.7995 32.5922 15.8001 32.7486C15.9486 32.7121 16.5462 31.8624 16.4924 31.8094ZM7.41901 34.9579C7.40399 34.6303 7.19593 34.322 7.29996 33.9977L7.01562 33.9082C7.11907 34.0944 7.00348 34.343 7.02775 34.475C7.04336 34.5612 7.3485 34.8612 7.41901 34.9579ZM7.28609 41.2415C7.39589 40.9123 7.07052 40.8985 6.93009 40.6548L6.49549 40.9526L6.61049 41.1449C5.96668 40.9609 6.41458 41.9398 6.87056 41.531L6.84282 41.6973C6.98499 41.6664 6.92835 41.4973 6.98846 41.4211C7.01446 41.3879 7.26528 41.304 7.28609 41.2415ZM13.2561 41.9189C13.2197 41.5774 13.3445 41.2437 13.3936 40.9128C13.4075 40.8206 13.4583 40.778 13.3433 40.704C13.3173 40.9692 13.2231 41.2415 13.2 41.5056C13.1925 41.5924 13.1503 41.8824 13.2561 41.9189ZM10.771 44.0182C10.7253 43.5724 10.3763 43.1591 10.1133 42.7973L9.61628 41.9194L9.75961 42.3061L10.771 44.0182ZM15.0476 44.1287C15.0927 44.0845 14.5651 43.3878 14.4928 43.3061C14.4038 43.205 14.3033 43.0895 14.1813 43.0243C14.3085 43.3 14.5408 43.6713 14.735 43.9033C14.7754 43.9519 14.9829 44.1922 15.0476 44.1287ZM7.304 45.2889C7.37278 44.9259 7.35948 44.6513 7.27569 44.2933C7.26124 44.2326 7.27511 44.1143 7.18957 44.1287C7.10924 44.4458 7.08555 44.8933 7.18726 45.2076C7.21269 45.2866 7.15259 45.3054 7.304 45.2889ZM7.65018 45.5651C7.64845 45.2358 7.63631 44.8695 7.59239 44.5441C7.58083 44.4607 7.56754 44.2138 7.47796 44.1845C7.54211 44.5751 7.41323 45.0828 7.51841 45.4458C7.54673 45.5435 7.49992 45.5894 7.65018 45.5651ZM8.66213 45.8955C8.56677 45.896 8.2021 45.2911 8.45928 45.2336C8.46043 45.5446 8.99906 45.6286 8.66213 45.8955ZM12.6781 47.7197L12.4972 47.2031L11.8124 46.0076C11.8569 46.3485 12.1297 46.6302 12.2331 46.9584L12.6781 47.7197ZM17.8217 46.0076C17.6015 46.0966 17.2316 45.97 17.153 46.1756L16.9554 46.1187V46.2822L17.3593 46.3385L17.3021 46.1733L17.8217 46.228V46.0076ZM10.6253 47.0015C10.3728 47.0169 10.2549 46.6297 10.4601 46.5645C10.8005 46.4568 10.7623 46.9777 10.6253 47.0015ZM10.9681 47.5335C10.9172 47.4446 10.9605 47.3087 10.8299 47.2783C10.6646 47.639 10.9577 47.7401 10.9958 48.0749C11.7228 48.1793 11.0871 47.7407 10.9681 47.5335Z" fill="#1a1a2e"/><path d="M10.2485 24.7396C10.2797 24.7595 10.5808 25.3594 10.5404 25.4003L10.0792 25.1246C10.0659 25.2407 10.167 25.3235 10.1763 25.4351C10.2081 25.8268 10.0122 27.4046 9.85959 27.7604C9.74401 28.0306 9.59317 28.2924 9.2493 28.1654C9.18111 28.1284 9.20422 27.7306 9.21231 27.6389C9.23312 27.403 9.29033 26.929 9.33946 26.7107C9.3568 26.6345 9.41228 26.5262 9.49954 26.5058C9.59432 26.9373 9.21809 27.219 9.44291 27.6107C9.76712 27.3284 9.55329 26.7781 9.56312 26.4284C9.56889 26.2334 9.81625 25.25 9.91218 25.0611C9.94166 25.0031 10.0728 24.9512 10.0497 24.7954C10.0763 24.7291 10.2127 24.7175 10.2485 24.7407V24.7396Z" fill="#1a1a2e"/><path d="M14.7598 27.6654C15.017 27.7311 15.1742 27.3892 15.3094 27.3339C15.3794 27.3052 15.4204 27.3477 15.3944 27.4151C15.3406 27.5549 14.7725 28.046 14.6442 27.9411C14.4685 27.4649 14.8222 27.1074 14.9609 26.6699C15.2331 25.8113 15.4614 24.7733 15.6914 23.8877C15.7822 23.5385 15.7747 23.3236 15.7706 22.9695L15.9105 23.1584C15.8041 23.7009 15.7169 24.2451 15.5874 24.7832C15.5152 25.0832 15.3603 25.376 15.2956 25.6644C15.2216 25.9964 15.2696 26.3445 15.2089 26.6312C15.1702 26.813 14.6356 27.5422 14.7598 27.6654Z" fill="#1a1a2e"/><path d="M7.28609 41.2415C7.26528 41.304 7.01446 41.3879 6.98846 41.4211C6.92835 41.4973 6.98499 41.6664 6.84282 41.6973L6.87056 41.531C6.41458 41.9398 5.96668 40.9609 6.61049 41.1449L6.49549 40.9526L6.93009 40.6548C7.07052 40.8985 7.39589 40.9123 7.28609 41.2415Z" fill="#1a1a2e"/><path d="M13.1994 31.6431C13.1977 30.9277 13.5242 30.2736 13.6774 29.5874L14.4697 27.666C14.4738 27.7626 14.4801 27.8604 14.457 27.9565C14.1646 29.1637 13.4526 30.1852 13.3578 31.5166C13.3508 31.6188 13.3029 31.6564 13.1994 31.6431Z" fill="#1a1a2e"/><path d="M13.2347 18.1427C13.1572 18.2189 13.0544 18.2725 12.9966 18.3841L12.9394 18.2741C12.8296 18.3404 12.9301 18.4382 12.859 18.5238C12.6984 18.7167 11.8633 19.1664 11.5812 19.2128L12.3938 18.4156L13.5751 17.7217C13.6756 17.7907 13.5514 17.8388 13.5069 17.8775C13.3913 17.9786 13.3341 18.0449 13.2347 18.1427Z" fill="#1a1a2e"/><path d="M15.395 31.0912C15.2696 31.7359 15.3458 32.4331 14.8754 32.9696L15.106 31.9204L14.7304 32.3066C14.687 32.3143 14.6939 32.2536 14.7009 32.2232C14.7304 32.0945 15.0199 31.5387 15.1043 31.3934C15.154 31.3083 15.2672 31.0708 15.395 31.0912Z" fill="#1a1a2e"/><path d="M11.1443 24.9335C11.3241 25.1473 11.5627 25.8771 11.7107 26.1876C11.9037 26.592 12.3077 26.9997 12.273 27.5002L11.943 26.8522C11.6673 26.5986 11.6564 26.2401 11.494 25.8975C11.3489 25.592 11.0467 25.1959 10.9455 24.8749C10.9212 24.797 10.9519 24.7766 11.031 24.7932C11.0709 24.8385 11.1056 24.8871 11.1443 24.9335Z" fill="#1a1a2e"/><path d="M12.0124 24.2705C12.073 24.4158 12.2765 24.591 12.1736 24.7838L12.2759 24.8241C11.9939 25.1213 13.033 26.3334 12.9677 26.3947C12.6706 26.3533 12.4955 25.9566 12.3799 25.7141C12.1649 25.2633 11.9725 24.6158 11.8401 24.1308C11.806 24.0054 11.7442 23.8114 11.7829 23.6882C11.865 23.8822 11.9303 24.0761 12.0124 24.2705Z" fill="#1a1a2e"/><path d="M14.7575 22.0336L14.7881 22.1408C14.8743 22.0557 14.8956 21.9867 14.9893 22.1132C14.9372 22.1651 14.713 22.4507 14.6928 22.4623C14.6754 22.4723 14.5968 22.4159 14.5315 22.4436C14.4165 22.4922 14.3449 22.6756 14.2524 22.7491C14.1345 22.8424 13.3254 23.4595 13.2572 23.1623C13.2173 22.9899 13.7167 22.9209 13.8184 22.8712C13.9825 22.7905 14.3946 22.4248 14.5287 22.2795C14.6292 22.1701 14.6015 21.9905 14.7575 22.0336Z" fill="#1a1a2e"/><path d="M13.0388 24.6153C12.9972 24.5473 13.007 24.2578 13.0792 24.2092C13.1705 24.1479 13.6386 24.2186 13.693 24.2926C13.8588 24.5197 13.6531 24.8269 13.3445 24.7937C13.3058 24.7893 13.0474 24.6302 13.0388 24.6153Z" fill="#1a1a2e"/><path d="M11.1177 24.4059L10.7692 23.9888C10.6011 24.1368 10.3659 23.5733 10.3641 23.4954C10.3635 23.4739 10.5907 23.3965 10.4826 23.1358L10.7126 23.5772C10.7733 23.4424 10.5635 23.1629 10.7126 23.0805C10.7508 23.5667 10.997 23.9446 11.1177 24.4059Z" fill="#1a1a2e"/><path d="M16.3202 30.9802L16.5497 30.8702C16.6051 30.9354 16.1081 31.6652 16.022 31.7735C15.948 31.8669 15.9313 31.8818 15.7995 31.8641C15.9885 31.4359 16.0613 30.9244 16.4347 30.594L16.3202 30.9802Z" fill="#1a1a2e"/><path d="M14.2484 19.1514L14.4119 19.1846C14.2322 19.3675 14.2085 19.7956 13.8929 19.7652C13.7785 19.452 13.9201 19.1117 14.1524 18.8824L14.2484 19.1514Z" fill="#1a1a2e"/><path d="M14.9904 22.3071C14.6471 23.0336 13.86 23.6916 12.9671 23.4104L13.0445 23.3087C13.3191 23.4523 13.9305 23.3126 14.1761 23.1579C14.3246 23.0645 14.6853 22.5811 14.839 22.4099C14.8887 22.3546 14.8413 22.2712 14.9904 22.3071Z" fill="#1a1a2e"/><path d="M10.8294 25.3998C10.7063 25.4252 10.6982 25.3401 10.6461 25.2716C10.3867 24.9291 10.2532 24.4965 10.252 24.0744C10.4011 24.1788 10.8808 25.3467 10.8294 25.3998Z" fill="#1a1a2e"/><path d="M14.3478 21.4723C14.3114 21.4977 13.7791 21.527 13.7288 21.4685C13.7011 21.4364 13.7288 21.3232 13.6907 21.2585C13.6213 21.1414 13.3884 21.2176 13.4306 21.0364L14.3547 21.2856C14.4385 21.3071 14.3559 21.4668 14.3478 21.4723Z" fill="#1a1a2e"/><path d="M14.8459 25.7881C14.9303 25.781 14.9222 25.8997 14.8662 25.9716C14.7315 26.1439 13.9161 26.8069 13.7219 26.8676C13.6369 26.8942 13.4838 26.8864 13.489 26.8091C13.493 26.7555 14.2882 26.3539 14.4402 26.2279C14.5379 26.1467 14.8153 25.7909 14.8459 25.7881Z" fill="#1a1a2e"/><path d="M7.41901 34.9579C7.3485 34.8612 7.04336 34.5612 7.02775 34.475C7.00348 34.343 7.11907 34.0944 7.01562 33.9082L7.29996 33.9977C7.19593 34.322 7.40399 34.6303 7.41901 34.9579Z" fill="#1a1a2e"/><path d="M13.7196 26.1732L14.4512 25.7677C14.7766 25.5246 14.8598 25.1793 15.1054 24.9031C14.9101 25.5533 14.4738 26.1301 13.7196 26.1732Z" fill="#1a1a2e"/><path d="M14.0652 30.9255L13.5924 31.6608L13.3144 32.3061C13.2977 32.0304 13.3873 31.726 13.5231 31.484C13.5676 31.4055 13.9808 30.8454 14.0652 30.9255Z" fill="#1a1a2e"/><path d="M9.69951 30.6802C9.95957 31.0691 10.2104 31.4812 10.367 31.9188C10.2312 31.9497 10.1821 31.7691 10.1266 31.6801C9.94339 31.3857 9.70124 30.9437 9.5452 30.6332C9.52093 30.5846 9.43771 30.4216 9.55734 30.4282C9.56485 30.5327 9.64634 30.6006 9.69951 30.6802Z" fill="#1a1a2e"/><path d="M15.0476 44.1287C14.9829 44.1922 14.7754 43.9519 14.735 43.9033C14.5408 43.6713 14.3085 43.3 14.1813 43.0243C14.3033 43.0895 14.4038 43.205 14.4928 43.3061C14.5651 43.3878 15.0927 44.0845 15.0476 44.1287Z" fill="#1a1a2e"/><path d="M11.1761 23.5219C11.168 23.5965 11.2281 23.7987 11.1195 23.7982C10.9871 23.4104 10.9293 22.9949 10.9455 22.5833C11.0964 22.5706 11.0414 22.5761 11.0588 22.6662C11.1137 22.9496 11.0854 23.2965 11.1761 23.5219C11.2056 23.2507 11.2784 23.3065 11.29 23.2623C11.3183 23.1496 11.2223 22.9071 11.3483 22.859C11.4674 23.1325 11.3345 23.4247 11.3506 23.6534C11.3622 23.8125 11.5188 23.9932 11.4645 24.1844C11.3079 24.2098 11.3651 24.1567 11.3333 24.0639C11.268 23.87 11.2507 23.7076 11.1761 23.5219Z" fill="#1a1a2e"/><path d="M16.4924 31.8094C16.5462 31.8624 15.9486 32.7121 15.8001 32.7486C15.7995 32.5922 15.922 32.4386 16.007 32.3116C16.0463 32.2525 16.4214 31.7392 16.4924 31.8094Z" fill="#1a1a2e"/><path d="M14.0085 18.1078C14.0368 17.8156 14.1253 17.5173 14.2322 17.2449C14.2599 17.1747 14.2449 17.0753 14.3541 17.0582C14.3611 17.4046 14.2882 17.8659 14.0085 18.1078Z" fill="#1a1a2e"/><path d="M13.2566 18.6056C13.1804 18.9614 12.9145 19.2227 12.6221 19.4337C12.6238 19.2597 12.8324 19.1398 12.9099 19.0189C13.0012 18.8758 12.7157 19.0559 12.7949 18.9095L13.2566 18.6056Z" fill="#1a1a2e"/><path d="M11.0033 25.4556C11.1409 25.8528 11.309 26.2721 11.6379 26.5605C11.4882 26.1831 11.3148 25.7296 11.0033 25.4556Z" fill="#1a1a2e"/><path d="M11.7535 22.6938L11.5812 23.7429C11.4818 23.4601 11.5223 23.0838 11.6101 22.8021C11.6402 22.7049 11.6211 22.6723 11.7535 22.6938Z" fill="#1a1a2e"/><path d="M14.4697 18.8813C14.32 18.9023 14.3507 18.8586 14.3553 18.7437C14.3628 18.5603 14.4535 18.404 14.5217 18.2393L14.6431 17.4449C14.6679 17.9294 14.5743 18.41 14.4697 18.8813Z" fill="#1a1a2e"/><path d="M13.0833 22.6375C13.2376 22.4623 13.4855 22.3933 13.4884 22.117C13.5508 22.0021 13.7022 22.2099 13.7103 22.2889C13.7259 22.4397 13.2468 22.6612 13.0833 22.6375Z" fill="#1a1a2e"/><path d="M14.4703 31.3122C14.4616 31.4254 14.0033 32.4519 13.8351 32.3055C14.0761 32.0547 14.1721 31.7249 14.3368 31.4304C14.3778 31.3569 14.3067 31.2807 14.4703 31.3122Z" fill="#1a1a2e"/><path d="M16.2041 30.152C16.1434 30.3901 15.9839 30.6255 15.833 30.8205C15.8111 30.8492 15.7718 31.0221 15.6845 30.9249C15.6625 30.9006 15.9411 30.4288 15.9862 30.3564C16.0399 30.2691 16.0706 30.1194 16.2041 30.152Z" fill="#1a1a2e"/><path d="M13.1983 19.6547C12.9659 19.7989 12.677 19.9448 12.5053 20.1514C12.651 20.1348 13.3485 19.8365 13.1983 19.6547Z" fill="#1a1a2e"/><path d="M15.2788 28.6051L14.7598 29.5438C14.9881 29.2974 15.2667 28.9405 15.2788 28.6051Z" fill="#1a1a2e"/><path d="M13.8351 17.7764C13.9074 17.6532 14.0259 16.8405 14.0946 16.8383C14.2189 16.8339 14.1328 16.993 14.1264 17.0322C14.0871 17.2692 14.0322 17.6101 13.8351 17.7764Z" fill="#1a1a2e"/><path d="M15.8579 22.5828C15.9139 22.2563 15.7862 22.0071 15.7423 21.6994C15.8174 21.6988 15.8787 21.8568 15.896 21.9104C15.9527 22.0828 16.0671 22.4822 15.8579 22.5828Z" fill="#1a1a2e"/><path d="M13.2561 41.9189C13.1503 41.8824 13.1925 41.5924 13.2 41.5056C13.2231 41.2415 13.3173 40.9692 13.3433 40.704C13.4583 40.778 13.4075 40.8206 13.3936 40.9128C13.3445 41.2437 13.2197 41.5774 13.2561 41.9189Z" fill="#1a1a2e"/><path d="M13.7184 19.7658C13.7398 19.8337 13.6063 19.8586 13.5728 19.8542C13.2792 19.8155 13.3081 19.4012 13.5167 19.2686L13.4549 19.5487L13.7184 19.7658Z" fill="#1a1a2e"/><path d="M14.5287 19.9028C14.568 20.0967 15.121 19.7354 15.1638 19.6553C15.0615 19.7138 14.4957 19.742 14.5287 19.9028Z" fill="#1a1a2e"/><path d="M15.7411 19.9868C15.7752 20.1359 15.6955 20.0807 15.6267 20.1232C15.4903 20.2077 15.3302 20.3066 15.1638 20.3177C15.054 20.2193 15.64 19.9448 15.7411 19.9868Z" fill="#1a1a2e"/><path d="M10.7716 21.4232C10.6589 21.6347 10.5311 21.5878 10.6554 21.8646L10.4242 21.8386L10.541 21.6712L10.4248 21.616C10.5248 21.5176 10.604 21.3955 10.7716 21.4232Z" fill="#1a1a2e"/><path d="M26.9535 16.1748L26.9015 16.3715C27.0858 16.5328 27.1257 17.0814 27.0558 17.3493C27.0361 17.4256 26.9263 17.4554 26.9541 17.5554L27.1847 17.3902C27.2014 17.5195 27.1326 17.6929 27.1448 17.8128C27.1604 17.9664 27.2829 18.0476 27.2459 18.3045C27.2315 18.4034 27.0968 18.5736 27.1274 18.6051C27.2401 18.7216 27.2234 18.4117 27.358 18.4951C27.3158 18.6227 27.3124 18.7343 27.3205 18.8653C27.3297 19.0227 27.454 19.5735 27.4517 19.6282C27.4488 19.6934 27.3609 19.7586 27.3696 19.8398C27.3788 19.9293 27.5025 20.0044 27.5222 20.0834C27.5511 20.1995 27.4719 20.2912 27.4759 20.3983C27.48 20.5122 27.5811 21.0132 27.6071 21.1668C27.625 21.2734 27.7406 21.3381 27.7528 21.4049C27.7678 21.49 27.6481 21.5696 27.6586 21.6629C27.669 21.7563 27.8117 21.8353 27.8158 21.9441C27.8186 22.0137 27.7585 22.0961 27.7608 22.1712C27.7759 22.7225 27.9429 23.2584 27.9943 23.7728C28.0365 24.1921 28.077 24.5153 28.2001 24.955C28.2272 25.0523 28.207 25.2418 28.2336 25.2821C28.2492 25.3058 28.4815 25.35 28.5549 25.3893C29.2016 25.7362 28.8965 26.6489 28.2018 26.5599C28.0637 26.5422 27.9579 26.4152 27.9076 26.4124C27.8695 26.4102 27.4002 26.6853 27.2228 26.7345C26.4807 26.9411 25.8398 26.8583 25.1602 26.5356C24.9365 26.4295 24.4684 26.2069 24.4684 25.9533C24.4303 25.9152 24.1592 26.3782 23.8616 26.1207C23.7304 26.0075 23.6547 25.8428 23.8911 25.8423L23.9442 26.0401C24.0222 26.0815 24.1552 26.0865 24.2124 26.0108C24.3447 25.8362 23.928 25.5771 24.0072 25.5119L24.6424 25.5666C24.7111 25.2489 24.4707 25.1003 24.1627 25.1909C23.924 25.2611 23.9592 25.6672 23.7766 25.7881C23.6379 25.4031 24.0691 25.2257 24.143 25.007C24.2072 24.8175 24.1026 24.6053 24.2898 24.5479L24.2384 24.4081H24.469L24.3083 24.7584C24.3129 24.9462 24.5089 24.902 24.5886 24.9987C24.6765 25.1042 24.7967 25.4401 24.7001 25.5677L25.7017 25.6257C25.9635 25.0147 26.4287 25.1721 26.616 25.7252L27.5568 25.8456C27.5424 25.5981 27.992 25.3998 27.999 25.3672C28.0076 25.3268 27.8863 24.6727 27.866 24.5589C27.8366 24.3959 27.8261 24.1131 27.8129 24.0595C27.7938 23.9844 27.6591 23.944 27.6464 23.8269C27.6337 23.7098 27.747 23.5838 27.7389 23.4976C27.7169 23.2606 27.5684 22.8292 27.5355 22.5485C27.4846 22.1099 27.5158 21.6082 27.4632 21.1884C27.4482 21.0701 27.2968 20.8348 27.3002 20.6795H27.4742C27.358 20.6016 27.2101 20.2901 27.1933 20.1674C27.1766 20.0448 27.2979 19.9923 27.2921 19.9138C27.2852 19.8161 27.1066 19.7232 27.1251 19.5774C27.1355 19.4934 27.2494 19.4244 27.2378 19.3603C27.2222 19.2713 26.8304 18.9929 27.243 18.8006C26.8836 18.6526 27.1009 18.4581 27.0708 18.252C27.0425 18.0581 26.9177 17.6753 26.8963 17.4692C26.8789 17.3035 27.0009 17.1891 26.9968 17.1421C26.9928 17.0952 26.8587 17.0399 26.8373 16.9201C26.8044 16.7344 26.8679 16.4256 26.7795 16.2063L26.9541 16.1764L26.9535 16.1748ZM26.3091 25.4086C25.63 25.3865 25.7786 25.7417 26.3756 25.676L26.3091 25.4086ZM27.9937 26.2854C28.3804 26.7456 28.9803 26.1533 28.7375 25.7113C28.5197 25.3147 27.7736 25.3539 27.7632 25.8423H28.3983C28.4931 25.9312 28.1267 26.2964 27.9937 26.2854Z" fill="#1a1a2e"/><path d="M19.1509 25.8428L19.0602 26.0638L19.4745 26.4461C19.6647 26.3975 19.767 26.276 19.9866 26.2815C20.1617 26.2859 20.6373 26.4605 20.5096 26.671C20.3888 26.3627 19.5751 26.3627 19.5029 26.5936C19.4035 26.9096 19.9721 26.7328 20.1045 26.7262C20.3611 26.7135 20.3189 26.7262 20.5784 26.6809C20.6229 26.6732 20.7598 26.7826 20.9124 26.7886C21.3886 26.8069 22.0255 26.7323 22.5191 26.7384L23.2264 26.8925L22.908 27.1698C23.1085 27.4544 23.6408 27.0826 23.6021 26.7826C23.7691 26.8627 23.5715 27.1234 23.4882 27.1991C23.1548 27.5024 23.0178 27.2914 22.778 27.3444C22.6982 27.3621 22.5011 27.5289 22.3884 27.5847C21.0269 28.2538 19.4572 28.1648 18.5747 26.8654C18.7851 26.6439 19.5294 26.998 19.3717 26.4909C19.263 26.1428 18.6279 26.1362 18.3424 26.2854C18.4794 26.087 18.7516 26.045 18.9781 26.0644L18.922 25.8705L19.1509 25.8439V25.8428Z" fill="#1a1a2e"/><path d="M22.1411 19.3641C22.1087 19.4094 21.9856 19.4072 21.9839 19.4879L22.2145 19.4332V19.9857C21.8862 20.0884 21.888 19.1172 21.9244 18.9747C21.9417 18.9062 22.0943 18.9155 22.0989 18.826L21.8683 18.8807L21.7521 17.7764C21.7868 17.7465 22.0359 17.8438 21.9827 17.6941C21.9186 17.5128 21.762 17.783 21.6944 17.7206C21.8544 17.4791 21.6412 17.2897 21.64 17.141C21.6395 17.0471 21.7516 16.951 21.7302 16.8372C21.7088 16.7234 21.5805 16.6516 21.5811 16.5333C21.5817 16.4356 21.6984 16.351 21.6834 16.2671C21.6574 16.1179 21.3349 15.9328 21.6655 15.6781C22.033 15.8781 21.7446 16.1776 21.7574 16.2499C21.7678 16.3068 21.9093 16.3577 21.9278 16.4809C21.9515 16.6389 21.8261 16.7466 21.8296 16.8096C21.8325 16.8637 21.9712 16.9593 21.9839 17.0908C21.9955 17.209 21.9197 17.3134 21.9267 17.4151C21.944 17.6648 22.0619 18.1001 22.096 18.3592C22.1186 18.5272 22.2099 19.2669 22.1411 19.3641Z" fill="#1a1a2e"/><path d="M26.3097 16.5687C26.3819 16.6797 26.2397 16.9074 26.2299 17.0289C26.2149 17.2173 26.1843 17.7371 26.1981 17.9145C26.2091 18.0526 26.3143 18.1548 26.3143 18.2465C26.3143 18.3752 26.1658 18.4631 26.1617 18.5233C26.1571 18.5935 26.2923 18.6719 26.2588 18.7714L26.0276 18.7443C25.997 18.9487 26.0964 18.8741 26.2594 18.8824L26.2357 19.2724L26.0276 19.3525L26.1935 19.4393L26.2548 19.842C26.0727 20.0415 25.9843 19.9354 26.0282 19.7105L26.1427 19.7663V19.6L26.0288 19.6553C25.9051 19.4371 26.0213 19.2691 26.0282 19.0752C26.0317 18.9852 25.9647 18.8923 25.971 18.8012C25.9808 18.6548 26.1617 18.5371 26.0271 18.3294C25.834 18.357 25.9473 18.7338 25.9121 18.7708L25.6815 18.7156L25.6803 18.6343C25.7959 18.4763 25.7855 18.4012 25.7398 18.2189L25.9704 18.2736C25.9924 18.0929 25.9808 18.0946 25.7976 18.1078L26.0872 16.5057L26.3097 16.5687Z" fill="#1a1a2e"/><path d="M22.4977 22.2447L22.3584 22.3027C22.0712 22.1275 22.3208 21.8723 22.315 21.7812C22.3116 21.7276 22.122 21.6187 22.111 21.4966C22.1024 21.3989 22.2289 21.3082 22.2162 21.1773C22.2058 21.0685 22.066 20.9889 22.055 20.8906C22.0434 20.784 22.1607 20.674 22.144 20.5757C22.1203 20.4376 21.8383 20.2867 22.1295 20.042C22.4162 20.1177 22.2555 20.4094 22.2734 20.5613C22.2867 20.6779 22.3994 20.763 22.389 20.8939C22.3821 20.9812 22.2925 21.0602 22.2925 21.1193C22.2914 21.2176 22.4769 21.3386 22.4815 21.4491C22.4867 21.5651 22.3422 21.6944 22.3434 21.7276C22.3445 21.7563 22.6456 22.0264 22.4977 22.2447Z" fill="#1a1a2e"/><path d="M22.7346 23.6871L22.4711 23.6341C22.541 23.4446 22.4139 23.396 22.3879 23.2452H22.619C22.6578 23.0706 22.5052 23.1468 22.3873 23.1347C22.5347 22.9612 22.085 22.438 22.4173 22.3618C22.6913 22.2988 22.5584 22.8286 22.5624 22.8839C22.5693 22.985 22.6687 23.064 22.6757 23.1651C22.6872 23.3341 22.5376 23.4905 22.7346 23.6871Z" fill="#1a1a2e"/><path d="M26.4906 15.6776L26.4322 16.5057L26.0941 16.4466L26.0276 16.2858L26.2588 16.2013L26.0288 16.1742C26.0334 15.924 26.2767 16.0118 26.1438 15.7328L26.4906 15.6776Z" fill="#1a1a2e"/><path d="M22.9074 26.008C23.3478 25.9809 23.7391 26.2809 23.6581 26.7262L23.4582 26.3384C23.2698 26.0865 22.9409 26.0975 22.7034 26.2826C22.5907 26.3704 22.6167 26.524 22.504 26.5605C22.4786 26.3152 22.7098 26.1942 22.8462 26.029L22.7346 25.7876C22.9467 25.7671 22.9768 25.839 22.9074 26.008Z" fill="#1a1a2e"/><path d="M25.2769 21.5883L24.9885 21.4773L25.1047 20.9806L25.2769 21.0911C25.3544 20.9486 25.1584 20.9094 25.159 20.8972C25.1665 20.7773 25.318 20.6232 25.2203 20.4282L25.4463 20.5652C25.2787 20.7088 25.4104 20.8458 25.3838 20.9939C25.3526 21.1685 25.1613 21.3187 25.2769 21.5883Z" fill="#1a1a2e"/><path d="M20.3073 20.1525C20.2022 20.3746 20.1536 20.4575 20.249 20.7044L20.0184 20.5945L20.1917 20.7602C20.0935 20.9768 20.0883 21.0812 20.1051 21.3121L19.9011 21.1696C19.9981 20.9922 19.9375 20.8033 19.9635 20.6243C19.9895 20.4453 20.1767 20.31 20.0184 20.0973L20.3073 20.1525Z" fill="#1a1a2e"/><path d="M25.2197 21.6441C25.2821 21.7867 25.1116 21.7342 25.1007 21.7894C25.081 21.8889 25.1475 21.9938 25.1301 22.0922C25.1105 22.2054 24.9619 22.3143 24.94 22.4038C24.9047 22.5469 24.8839 23.128 24.84 23.2479C24.8209 23.3004 24.6955 23.3656 24.6637 23.4656C24.632 23.5656 24.6938 23.6545 24.673 23.7451C24.6499 23.8446 24.5262 24.2606 24.3817 24.2396C24.2187 24.2153 24.3667 24.1087 24.3846 24.0739C24.4811 23.8849 24.3609 23.9667 24.3528 23.7424C24.5528 23.9573 24.7262 23.6711 24.41 23.6601C24.5065 23.5186 24.6204 23.5026 24.5903 23.3054L24.7568 23.3004V23.1347H24.5834C24.6452 22.9496 24.7452 22.9049 24.6418 22.6933L24.8724 22.748L24.699 22.5822L24.8152 22.1408L25.0457 22.1955C24.9614 21.9458 24.7181 22.0717 25.033 21.7817L24.9307 21.5883L25.2197 21.6441Z" fill="#1a1a2e"/><path d="M26.2022 23.854C26.0664 24.054 26.2582 24.1943 26.2582 24.323C26.2582 24.4517 26.071 24.628 26.2028 24.8473H25.9716V24.4064L26.2016 24.323L25.971 24.2396V23.854H26.2022Z" fill="#1a1a2e"/><path d="M20.8269 19.5448C20.8881 19.7857 20.6107 19.6973 20.6541 19.8763H20.8275L20.7691 20.3729H20.5385C20.6974 20.0945 20.5437 19.8719 20.6529 19.5813L20.8269 19.5448Z" fill="#1a1a2e"/><path d="M20.7691 20.4834C20.7939 20.59 20.6784 20.6525 20.6639 20.7436C20.6368 20.916 20.8841 21.3834 20.4235 21.2569L20.6541 21.1464V20.9812L20.4235 21.0359C20.4726 20.8055 20.6547 20.7469 20.5391 20.4834H20.7691Z" fill="#1a1a2e"/><path d="M19.9201 21.3508C19.9652 21.3795 20.0247 21.3701 20.0762 21.3674V21.4491C19.8629 21.585 20.0242 21.7347 20.0166 21.89C20.0103 22.0248 19.8739 22.0961 19.8554 22.1811C19.8334 22.2833 19.986 22.5038 19.8456 22.527C19.8641 22.4054 19.7693 22.4038 19.671 22.4165C19.6427 22.311 19.7716 22.2397 19.7791 22.159C19.7878 22.0657 19.641 22.0287 19.6716 21.9198L19.96 21.9745C19.982 21.8292 19.8369 21.8071 19.7288 21.8082C19.8554 21.6359 19.8594 21.4624 19.8456 21.2569C19.9369 21.2342 19.8797 21.3254 19.9201 21.3508Z" fill="#1a1a2e"/><path d="M22.7924 24.2954L22.5618 24.2959L22.5052 23.8009L22.734 23.7435C22.6797 23.9755 22.7034 24.0816 22.7924 24.2954Z" fill="#1a1a2e"/><path d="M26.201 23.2479C26.1097 23.475 26.2369 23.5833 26.2594 23.7982L26.1687 23.6822L25.9716 23.7429C26.0386 23.491 26.0756 23.4413 25.9716 23.1905L26.201 23.2479Z" fill="#1a1a2e"/><path d="M19.7271 23.1949L19.6427 23.6877L19.4433 23.5446C19.5387 23.3722 19.53 23.2689 19.4988 23.08L19.7271 23.1949Z" fill="#1a1a2e"/><path d="M26.1872 20.3315C26.2669 20.4028 26.2293 20.6547 26.1952 20.753L25.971 20.7591V20.5939L26.145 20.5657L25.9716 20.2624C26.03 20.3039 26.1542 20.3022 26.1872 20.3315Z" fill="#1a1a2e"/><path d="M20.4807 22.6386L20.4229 23.1352H20.2501C20.2571 22.954 20.3316 22.8165 20.2501 22.6386H20.4807Z" fill="#1a1a2e"/><path d="M26.0323 21.5287L26.2016 21.4778C26.1109 21.6707 26.2542 21.8629 26.253 22.0027C26.2519 22.1563 26.0929 22.322 26.2016 22.5275H25.9716C26.0519 22.3336 26.1005 22.2883 25.9704 22.0867L26.2016 22.0021L26.0352 21.9171L25.9704 21.4513L26.0323 21.5287Z" fill="#1a1a2e"/><path d="M21.0008 18.3294C20.9107 18.5343 20.9708 18.6807 20.9719 18.8818L20.7662 18.7321L20.7731 18.3913L21.0008 18.3294Z" fill="#1a1a2e"/><path d="M19.2671 25.7312L19.0376 25.6732L19.0937 25.2346L19.3237 25.3174C19.1723 25.4329 19.181 25.5771 19.2671 25.7312Z" fill="#1a1a2e"/><path d="M20.4223 23.2463C20.3611 23.4418 20.2865 23.5286 20.3645 23.7429H20.134C20.164 23.5673 20.29 23.4932 20.1912 23.3032L20.4223 23.2463Z" fill="#1a1a2e"/><path d="M26.2022 20.9254L26.2016 21.3668H25.971C26.0161 21.1663 26.1363 21.1204 25.971 20.9254H26.2022Z" fill="#1a1a2e"/><path d="M20.9321 13.6462C20.9494 13.6561 20.9691 13.7534 21.0338 13.7926C21.2355 13.9158 21.5279 13.9092 21.7516 13.8539C21.781 14.26 21.7816 14.4108 21.3187 14.4108C20.8061 14.4108 20.6807 14.0622 20.7708 13.6329C20.824 13.6362 20.8824 13.618 20.9321 13.6462Z" fill="#1a1a2e"/><path d="M23.9477 5.34603C23.8275 5.33664 23.8292 4.98693 23.8159 4.9698C23.7518 4.88693 23.442 4.84605 23.8321 4.76595L23.6015 4.68308C23.6379 4.99522 23.6304 5.3394 23.6634 5.64546C23.7269 6.23052 23.7645 6.76695 23.7772 7.36195C23.7784 7.42714 23.7743 7.49233 23.7743 7.55642H23.6015C23.6298 7.25478 23.5778 6.95258 23.5651 6.65425C23.5437 6.1482 23.5345 5.63828 23.4882 5.15101C23.4651 4.90572 23.4686 4.65324 23.4287 4.4074L23.9205 4.68252L23.9477 5.34603Z" fill="#1a1a2e"/><path d="M24.1216 13.1904L23.8333 13.1898C23.75 12.8645 23.8466 12.6241 23.8911 12.307C23.9801 12.2938 23.9592 12.4103 23.976 12.4733C24.0396 12.7092 24.061 12.9545 24.1216 13.1904Z" fill="#1a1a2e"/><path d="M23.6015 1.86553V2.63842H23.4299C23.3276 2.3633 23.4744 2.14287 23.312 1.89371L23.6015 1.86553Z" fill="#1a1a2e"/><path d="M24.0055 1.86609C23.9517 1.99315 24.0113 2.61633 23.8044 2.58373L23.7749 1.86609H24.0055Z" fill="#1a1a2e"/><path d="M25.4723 14.2799C25.4908 14.308 25.5907 14.2655 25.5659 14.3506C25.307 14.5279 24.7256 13.8639 25.1885 13.9075C25.389 13.9268 25.385 14.1467 25.4723 14.2799Z" fill="#1a1a2e"/><path d="M22.6682 13.8611C22.7601 13.9832 22.3856 14.302 22.3307 14.2406L22.3572 13.797C22.4381 13.6705 22.5693 13.8418 22.6682 13.8611Z" fill="#1a1a2e"/><path d="M23.457 12.4181C23.3079 12.5446 23.2103 13.023 23.4853 13.0252L23.457 12.4181Z" fill="#1a1a2e"/><path d="M27.9937 26.2854C28.1267 26.2964 28.4931 25.9312 28.3983 25.8423H27.7632C27.7736 25.3539 28.5197 25.3147 28.7375 25.7113C28.9803 26.1533 28.3804 26.7456 27.9937 26.2854Z" fill="#1a1a2e"/><path d="M26.3756 25.676L26.3091 25.4086C25.63 25.3865 25.7786 25.7417 26.3756 25.676Z" fill="#1a1a2e"/></svg>