<svg width="48" height="91" viewBox="0 0 48 91" fill="none" xmlns="http://www.w3.org/2000/svg">
<path d="M30.6853 44.6923C29.9827 44.5751 29.6027 44.0018 29.6498 43.341L30.0789 44.1469C30.2175 44.3939 30.6966 44.3624 30.6853 44.6923Z" fill="white"/>
<path d="M29.0821 75.0728V75.4325L28.2343 75.3433L28.3277 75.6128L27.6685 75.5209V75.254L27.991 75.3469C28.1193 75.0115 28.7219 75.2189 29.0812 75.0737L29.0821 75.0728Z" fill="white"/>
<path d="M4.75295 49.3809C5.13487 49.4422 5.13204 48.9878 5.40929 48.7002C5.74218 48.3541 6.25236 48.2558 6.5447 47.8474C6.58147 48.2684 6.09016 48.4136 5.83554 48.6561C5.66768 48.8165 4.96513 49.6477 4.89534 49.6486C4.83593 49.6486 4.71428 49.4647 4.75389 49.38L4.75295 49.3809Z" fill="white"/>
<path d="M20.6892 77.8665L19.963 76.6243C19.7942 76.0888 19.3491 75.629 19.2765 75.0728L20.394 77.0236L20.6892 77.8665Z" fill="white"/>
<path d="M17.5772 71.8266L15.9269 69.033L15.693 68.4019L16.504 69.8344C16.9331 70.4248 17.5027 71.0991 17.5772 71.8266Z" fill="white"/>
<path d="M17.8987 77.5627C18.093 77.9008 19.1303 78.6165 17.944 78.4461C17.8818 77.8999 17.4037 77.7349 17.6734 77.1462C17.8865 77.1958 17.8158 77.4176 17.8987 77.5627Z" fill="white"/>
<path d="M11.92 73.9C11.6729 73.9271 11.771 73.8964 11.7295 73.7675C11.5635 73.2546 11.6022 72.5244 11.7332 72.0069C11.8728 71.9835 11.8502 72.1764 11.8737 72.2756C12.0105 72.8597 12.0322 73.3077 11.92 73.9Z" fill="white"/>
<path d="M12.4848 74.3508C12.2396 74.3904 12.316 74.3156 12.2698 74.156C12.0982 73.5638 12.3085 72.7353 12.2038 72.098C12.35 72.1457 12.3717 72.5487 12.3905 72.6848C12.4622 73.2158 12.482 73.8135 12.4848 74.3508Z" fill="white"/>
<path d="M17.0698 75.9815C17.6253 75.8057 17.563 76.6558 17.3395 76.6946C16.9274 76.7198 16.735 76.0879 17.0698 75.9815Z" fill="white"/>
<path d="M13.8051 73.8099C13.8069 74.3174 14.6858 74.4544 14.1361 74.8898C13.9805 74.8907 13.3854 73.9036 13.8051 73.8099Z" fill="white"/>
<path d="M10.7874 34.3254C10.8006 34.3344 10.8656 34.5778 10.8581 34.6246C10.8506 34.6679 10.4366 35.298 10.3762 35.3747C8.82116 37.3372 6.85118 38.9184 5.86572 41.3848L5.13016 42.1682C5.74218 40.6339 6.72387 39.3024 7.6188 37.9222C8.36568 36.7692 9.1946 35.1899 10.4526 34.411C10.5394 34.3569 10.7072 34.2704 10.7874 34.3254Z" fill="white"/>
<path d="M17.2358 22.2114C17.745 22.635 17.9685 22.9452 18.2863 23.5068L18.3325 23.2381H18.5193C19.0794 24.1198 20.3346 24.5029 21.3502 24.7706L20.973 24.9509C21.0984 25.2421 21.5369 25.1051 21.8208 25.1294L21.4926 24.7679C21.768 24.9158 22.2348 24.7427 22.3876 25.0384L22.0103 24.9915C21.7444 25.197 22.2197 25.0645 22.1046 25.2628C21.9368 25.5531 20.3676 25.4395 20.2195 25.0402L20.6458 25.1267C20.7665 25.0095 20.8297 25.0375 20.6863 24.9095C20.6184 24.8491 19.5094 24.2568 19.4161 24.2298C19.1181 24.1423 19.516 24.6336 19.2312 24.4975C19.0285 24.401 19.2096 24.2135 19.1699 24.1567C19.1285 24.0954 18.5466 23.7862 18.4749 23.5978C18.3655 23.7601 18.5174 24.0666 18.2401 24.1378L17.9572 23.5969C17.8403 23.9512 18.4259 24.5741 18.425 24.8139C18.425 24.9491 18.1458 25.2764 18.1477 25.5486C18.1496 25.7893 18.5655 26.1183 18.1449 26.167L17.7677 25.7614L17.6743 26.3013L17.4876 25.6297C17.6224 25.408 17.7535 25.5495 17.9553 25.5802C18.044 25.3773 17.7894 25.1592 17.8101 25.0348C17.8346 24.8815 18.1307 24.5849 18.1298 24.5426C18.1298 24.4912 17.9308 24.3875 17.8837 24.2523C17.8016 24.0143 17.6752 23.4761 18.0506 23.505V23.4184C17.6253 23.2093 17.6394 22.6188 17.1981 22.297C16.8199 22.0211 16.3324 22.141 16.2598 22.0635C16.0976 21.8913 16.5521 21.7832 16.6785 21.7949C16.9585 21.8219 17.0783 22.0788 17.2377 22.2105L17.2358 22.2114Z" fill="white"/>
<path d="M12.8271 29.1554C12.4103 29.8279 11.9435 30.5148 11.4928 31.172C11.4201 31.2775 11.5163 31.4046 11.2598 31.3505C11.5126 30.5617 11.8407 29.7918 12.1859 29.0364C12.3585 28.6596 12.7442 28.1926 12.6753 27.8356L13.4175 28.2404C13.4175 28.3269 12.995 28.711 12.9158 28.8354C12.8602 28.9237 12.8875 29.0598 12.8281 29.1563L12.8271 29.1554Z" fill="white"/>
<path d="M33.42 15.1249C33.784 15.4864 31.9781 16.6475 31.7216 16.8809C31.2001 17.3578 30.739 18.0997 30.2147 18.5054C29.8903 18.756 29.7545 18.5613 29.9242 18.2277C30.0195 18.0411 30.8946 17.1361 31.0964 16.9594C31.3576 16.7304 31.7405 16.5699 32.0074 16.3428C32.3676 16.0363 32.7448 15.4864 33.0372 15.2538C33.1645 15.1528 33.2399 15.0942 33.42 15.1249Z" fill="white"/>
<path d="M21.1616 21.794C20.8872 21.8129 20.1149 21.7597 20.0432 21.4613C20.0262 21.391 20.1092 21.0863 20.1262 21.0746C20.3308 20.934 20.6769 21.4586 20.7844 21.3441C20.7278 20.9772 20.7307 20.5869 20.6863 20.2218C20.6524 19.9423 20.6222 19.8441 20.5996 19.5006C20.5751 19.1328 20.3789 18.5144 20.7382 18.2818C21.1135 18.28 20.9221 21.3847 21.1626 21.7949L21.1616 21.794Z" fill="white"/>
<path d="M23.7078 14.7643L23.5211 14.9888C23.6191 15.2285 23.8728 14.9888 23.9935 15.0717C24.1312 15.1654 24.0529 15.3809 24.0897 15.5098C24.1133 15.5936 24.2651 15.5864 24.2755 15.6207C24.366 15.9155 23.9718 16.0453 23.8445 15.6748C23.3872 15.8406 23.1854 15.7523 22.9128 15.3881C22.7987 15.2358 22.4998 14.7904 22.8261 14.6877L23.7078 14.7643Z" fill="white"/>
<path d="M22.2933 14.0413C21.7425 13.8628 21.6888 14.2973 21.4728 14.3848C21.1192 14.5272 20.4195 14.5921 20.0309 14.5822L21.4455 14.2216C21.47 13.9818 21.4474 14.0756 21.3012 14.0422C20.8268 13.9331 20.4996 14.1495 20.0309 14.1315C20.327 13.7078 20.9815 13.9358 21.387 13.9259C21.6152 13.9205 22.1028 13.5779 22.2933 14.0413Z" fill="white"/>
<path d="M3.21581 44.1244C3.10548 44.2208 2.55286 44.4786 2.39632 44.3777C2.72638 43.9053 2.89612 43.4275 3.52607 43.2499C3.62037 43.3698 3.34878 44.0081 3.21581 44.1244Z" fill="white"/>
<path d="M13.806 25.2196C13.7221 25.1348 14.5774 23.4662 14.7481 23.688C14.8641 24.0792 14.5774 24.1856 14.4454 24.4344C14.2926 24.7229 14.2294 25.1844 13.806 25.2196Z" fill="white"/>
<path d="M22.2923 13.1416L21.8217 13.4103L22.4809 13.4121C22.1886 13.7618 21.52 13.5924 21.0673 13.7709C20.7316 13.4617 22.0905 13.1047 22.2923 13.1416Z" fill="white"/>
<path d="M19.1813 26.8422L19.2237 26.5682C19.5047 26.368 20.1686 26.4861 20.1309 26.8873C20.079 27.4426 19.4349 26.8251 19.1813 26.8422Z" fill="white"/>
<path d="M24.8394 21.7056C24.8932 21.9616 24.7602 21.849 24.6376 21.9139C24.0897 22.2005 23.6003 22.2023 23.1429 21.7498L24.8394 21.7056Z" fill="white"/>
<path d="M24.0379 13.8619C24.0935 13.8511 24.3198 13.568 24.5565 13.6825C24.417 14.4037 23.6672 13.7384 23.2815 14.099L22.6705 13.8619C23.0769 13.8087 23.6597 13.9349 24.0379 13.8619Z" fill="white"/>
<path d="M10.4111 32.883C10.397 33.523 10.5846 33.8674 9.88773 33.3328L9.95468 32.8965L10.4111 32.883Z" fill="white"/>
<path d="M24.3679 12.6909C24.0162 13.1579 23.2099 12.8775 22.6714 13.0497C22.7497 12.9172 23.1552 12.836 23.3098 12.8045C23.6474 12.7351 24.0218 12.69 24.3679 12.6909Z" fill="white"/>
<path d="M29.365 18.7299C29.3792 18.7425 29.4348 19.0823 29.4216 19.0959C29.3452 19.177 29.1594 19.1463 29.101 19.204C29.0255 19.278 29.1811 19.5078 28.9435 19.451L28.7058 19.0914C29.0019 19.2789 29.0887 18.4892 29.365 18.7299Z" fill="white"/>
<path d="M20.658 26.6773C20.8966 26.606 21.3587 26.6511 21.255 26.9774C21.1409 27.3398 20.113 26.8395 20.658 26.6773Z" fill="white"/>
<path d="M16.1532 24.7815C16.1617 24.7851 16.1504 24.877 16.239 24.9419C16.2899 24.9789 16.7511 25.1015 16.5398 25.3106C16.4427 25.4071 16.1739 25.1601 16.1136 25.161C16.0193 25.1619 15.9542 25.3674 15.7864 25.3106C15.743 25.1619 15.925 24.6814 16.1532 24.7815Z" fill="white"/>
<path d="M12.8856 27.3615C12.7734 27.2524 12.7668 26.9937 12.7696 26.8431L13.5212 27.2488C13.3854 27.466 13.0837 27.5544 12.8856 27.3615Z" fill="white"/>
<path d="M24.3679 13.2318C24.3679 13.3823 24.0473 13.4103 23.9407 13.4139C23.589 13.4283 23.1391 13.2687 22.7657 13.3201L23.4768 13.1371L24.3679 13.2318Z" fill="white"/>
<path d="M21.3502 21.2089C21.3795 21.3577 21.6803 21.6597 21.6322 21.885C21.4813 21.8598 21.2559 21.4794 21.2559 21.3892V19.9018H21.3502C21.404 20.2957 21.2767 20.8393 21.3502 21.2089Z" fill="white"/>
<path d="M42.8512 23.8683C42.6032 23.8403 42.5674 23.6907 42.3807 23.5978C42.2336 24.4542 41.5282 24.5876 40.8379 24.1252C40.3692 23.8115 40.2872 23.1056 39.595 23.8647C39.3885 24.0909 39.3158 24.5372 38.9424 24.5038C38.5416 24.4677 38.3634 23.5464 37.9749 23.4356C37.2949 23.2408 37.1063 24.109 36.4858 24.1468C35.7917 24.1883 35.7106 23.432 35.3551 23.5086C35.06 23.7114 35.5173 23.8782 35.4975 24.1766C35.4881 24.3163 35.3429 24.4416 35.341 24.5444C35.3372 24.7445 35.9445 25.3422 35.3523 25.4945C34.7459 25.3178 35.2288 24.8022 35.1995 24.648C35.1703 24.4939 34.7261 24.3415 34.8365 24.0495C35.0986 23.9746 35.0185 24.2063 35.1137 24.2766C35.2514 24.3776 35.4042 24.2198 35.4004 24.1838C35.391 24.09 34.9232 24.0233 35.1194 23.779C34.878 23.7916 34.7686 23.8349 34.695 23.5978L34.4602 23.8232L34.8346 24.0026L34.1773 24.2748L34.8346 24.5471C34.8761 24.8265 34.6271 24.5741 34.5121 24.5985C34.3876 24.6246 34.3367 24.7905 34.3631 24.9059L34.7403 24.8608L34.8355 25.2214L34.0811 25.1321V25.4017H34.7412C34.8402 25.7695 34.2244 25.5107 34.1801 25.7235L34.2829 26.3852C34.8374 26.4149 34.5818 26.8287 34.082 26.5727C33.9293 26.8242 34.1697 27.0793 34.1565 27.2335C34.1433 27.3876 33.9368 27.5571 33.9085 27.7221C33.8774 27.906 33.9849 28.052 33.9679 28.2206C33.951 28.4009 33.8236 28.9544 33.7793 29.2122C33.603 30.2255 33.3125 31.2189 33.2324 32.2529C32.8042 32.2033 32.8684 31.8923 33.2324 31.7571L32.957 31.7075L32.9504 31.2621L33.2314 31.3523C33.3229 31.1125 33.0617 31.2063 33.0409 31.1134C32.9627 30.7681 33.2427 30.2047 33.2475 29.8306L33.5162 29.8189C33.0853 29.3979 33.4436 29.1248 33.5115 28.7786C33.6039 28.3017 33.5539 27.5517 33.6266 27.183C33.6596 27.0171 33.8633 26.8332 33.8736 26.6944C33.8859 26.5348 33.6992 26.4149 33.7218 26.2743C33.7444 26.1337 34.0321 25.9371 34.0688 25.7848C34.116 25.5883 33.8708 25.4999 33.9029 25.2872C33.9245 25.142 34.1198 25.0167 34.1575 24.8824C34.2527 24.5399 33.9104 24.1558 34.3631 23.7403C33.7878 23.4031 33.5917 23.047 33.7095 22.3862C33.8274 21.7255 33.7869 21.6452 33.8208 21.0521C33.8519 20.5022 34.1735 19.9297 34.8355 20.083L34.6469 21.6164C34.8346 21.5082 35.0279 21.6326 35.2137 21.5803C35.5249 21.4929 35.8304 20.9772 36.301 20.9006C37.0149 20.7843 37.2563 21.0935 37.8523 21.2558C37.5986 20.5599 38.4379 19.3654 38.4105 18.8615C38.3879 18.4441 37.7042 18.619 37.6637 18.4144C37.6259 18.1854 38.2163 17.8293 38.221 17.7878C38.2266 17.7355 37.8768 17.1532 37.873 16.7944C37.8692 16.4645 38.0805 16.1174 38.1088 15.8812C38.1569 15.4837 38.0088 14.8752 38.0512 14.4614C38.0842 14.1396 38.2898 13.9124 38.3285 13.6429C38.4539 12.7684 38.2436 11.6209 38.2993 10.6373C38.3087 10.4679 38.3813 10.3831 38.1823 10.2596C37.5156 11.6037 36.9724 13.019 36.2038 14.3163C34.9845 16.3752 32.7722 18.1475 31.1558 19.9478C30.8899 20.8465 30.7079 20.6563 30.0676 20.9808C29.4273 21.3054 28.0316 22.8631 27.4328 23.4238C27.3479 23.5032 27.1706 23.4653 27.0989 23.5735C27.0584 23.6357 26.9895 24.5363 27.0037 24.6318C27.0433 24.8851 27.66 25.307 27.7411 25.6469C27.9014 26.3167 27.7751 27.6112 27.2941 28.1593L27.3073 28.2729C27.6261 28.4279 27.3488 29.5331 27.2753 29.9424C27.1225 30.7844 26.883 31.6173 26.6981 32.4557C26.6727 32.5711 26.5359 32.7352 26.5378 32.7514C26.5463 32.8388 26.965 32.8055 26.7972 33.2706C26.6793 33.597 25.9249 33.7637 25.8664 34.3713C25.8221 34.8329 26.0522 34.8004 26.1757 35.0745C26.5821 35.9769 26.7142 38.7543 26.6265 39.7793C26.5755 40.3796 26.3209 40.9431 26.2521 41.5389L26.6274 40.7285L26.7425 43.9991L27.5704 45.2837L27.4026 47.2444C27.5016 47.659 28.3371 47.8321 28.4126 48.7192C28.4371 49.0076 28.3324 49.1888 28.3352 49.4187C28.3522 50.6375 28.6021 51.9122 28.5135 53.1238C28.4795 53.5853 28.422 54.3984 28.0438 54.7022L27.9476 52.765L27.6666 51.0973C27.7279 53.3248 28.0382 55.4811 27.9524 57.7267C27.9316 58.2694 27.9118 59.4647 27.7902 59.9155C27.6789 60.3274 26.9914 61.2055 26.7359 61.7022C26.3945 62.3675 26.1634 63.0941 25.7806 63.7639C24.9837 65.1539 23.3212 66.9974 22.9213 68.5119C22.6045 69.7145 24.2397 70.7611 24.7904 71.741L24.7432 71.2948C25.9777 70.4834 26.8933 71.8969 26.9009 72.9679C26.9028 73.2455 26.5897 73.8964 26.8141 74.0434C26.8867 74.0911 27.8137 74.2399 27.9976 74.2642C28.951 74.3886 29.9374 74.422 30.8993 74.4652C31.9197 74.687 31.7443 77.0074 31.252 77.6249C31.0766 77.8458 30.5796 77.8367 30.6777 78.264C30.689 78.3127 31.0992 78.4984 31.2341 78.6526C31.5849 79.0528 31.5755 79.7073 31.8122 79.9931C31.9433 80.1517 32.2941 80.2743 32.4789 80.4375C32.6637 80.6007 32.7797 80.9045 32.991 81.0298C33.4068 81.2768 33.4229 81.1578 33.9161 81.5427C34.0141 81.6193 34.165 81.6103 34.2424 81.6797C34.48 81.8961 34.3357 82.4667 34.4696 82.5469C34.8874 82.5947 36.0539 82.6813 36.2906 83.0139C36.6905 83.5746 36.3472 86.1258 36.202 86.8875C36.1039 87.0056 35.9539 87.0174 35.8172 87.0606C34.3565 87.5339 32.3308 87.8539 30.7786 88.1938C27.4262 88.9285 24.036 89.6767 20.6571 90.2113C15.2309 88.9285 9.92168 87.2418 4.57471 85.7012C4.61338 85.0963 4.55019 82.2603 4.86611 81.9484C5.12167 81.696 5.69314 81.9159 5.93456 81.915C5.97982 81.915 5.97417 81.7771 6.04772 81.7518C6.21841 81.6923 6.51735 81.7293 6.59468 81.6671C6.76819 81.5247 6.76537 81.2218 6.87947 81.0334C7.14352 80.5998 7.60089 80.5619 8.03562 80.3816L8.25346 79.3278L8.69668 79.3296C8.82777 79.7857 9.25024 80.1076 9.73685 80.1427C9.75288 80.8432 10.247 79.9173 10.1244 79.7659L9.5605 79.9462V79.7677C10.247 79.6523 10.7996 79.2503 11.4117 78.9681C11.7398 78.8166 12.7376 78.5886 12.8413 78.2622C13.1167 77.3941 11.7031 75.7625 11.6323 74.8087C11.1495 75.1945 11.9228 75.6678 11.87 76.0699C10.5705 74.7654 10.2036 73.1121 9.8717 71.3993C9.60199 70.0066 9.07767 67.6699 9.66423 66.3898C10.1093 65.4172 11.3579 64.8997 11.5409 63.8098C11.9699 64.128 11.472 63.1274 11.4315 63.104C11.2966 63.0264 10.314 63.0733 10.049 62.7136C9.86793 62.2151 10.71 62.1069 10.5582 61.6472C9.32851 59.6108 8.20725 57.4959 6.86438 55.5244C6.50886 55.0024 6.02509 54.2263 5.59978 53.7836C5.47248 53.6511 4.79727 53.1977 4.77086 53.1535C4.66807 52.9804 4.63035 51.7184 4.35782 51.5642C4.08528 51.4101 3.14791 51.7148 3.32237 50.7511C2.45667 50.4148 1.92292 51.5615 0.946887 51.0801C0.625314 50.9215 1.00064 50.9665 0.457456 50.8836C-0.118734 50.7953 0.382013 50.2517 0.7017 50.0714C1.10814 49.8424 1.38351 49.8758 1.75317 49.7315C1.88897 49.6783 2.56135 49.4106 2.57927 49.3367C2.5887 49.151 2.3454 49.0112 2.31522 48.8697C2.24732 48.5452 2.6962 47.7925 1.82485 47.8529L1.92009 47.6744L1.39954 47.8186C0.985551 47.7925 1.13832 47.3498 1.04496 47.1118C0.766769 46.4096 0.291483 45.6929 0.599853 44.8798C-0.0687538 44.8987 -0.0366907 43.9486 0.0396945 43.487C0.192465 42.5603 1.80881 43.075 1.92103 43.7971L2.05117 43.789C2.80937 43.5582 4.51059 40.7429 4.95381 39.9812C5.65448 38.7759 6.20426 37.4787 6.93605 36.287C7.76969 34.9302 8.72403 33.9467 9.6482 32.7288C10.3536 31.7985 10.7365 30.7086 11.24 29.6738C11.4654 29.2095 12.2849 27.9375 12.3717 27.5913C12.4414 27.3155 12.1972 27.2244 12.2161 27.0928C12.2811 26.6502 12.7347 26.2887 12.8847 26.0147C13.4995 24.8878 13.4533 23.8178 14.6491 22.837C14.9358 22.6017 15.3969 22.4755 15.478 22.4124C15.5091 22.388 15.8279 21.7615 15.7807 21.711L15.5176 21.7868C15.1432 21.4163 15.1828 21.0169 15.5544 20.6374C15.8533 20.3327 16.488 19.9072 16.6766 19.4519C16.7275 19.3302 16.6247 19.2085 16.6747 19.0995C16.7143 19.0147 16.885 18.9471 16.9067 18.8588C16.935 18.7434 15.9184 17.8843 16.9378 17.539C17.1424 17.4696 17.3508 17.6553 17.5281 17.4768C17.5715 17.4335 18.0864 16.4861 18.1119 16.4113C18.2307 16.0597 18.1515 15.5837 18.4061 15.2475C18.4259 15.0789 17.7677 14.6841 17.6366 14.474C17.5055 14.264 17.3773 13.7925 17.3773 13.5518C17.3754 12.8613 18.0468 10.7284 18.6154 10.3119C18.7192 10.2362 19.251 9.8738 19.3331 9.82962C19.5887 9.6908 20.1648 9.66556 20.3459 9.54837C20.4449 9.48436 20.3374 9.31669 20.5147 9.24006C20.8382 9.09943 21.3663 9.21752 21.7218 9.18056C21.7491 9.45732 21.4521 9.4492 21.2757 9.52042C21.0456 9.61327 21.106 9.66015 21.2993 9.6331C21.6105 9.58983 21.8642 9.3843 22.1942 9.4492C21.8953 8.81817 22.794 9.43478 23.0005 9.4465C23.3881 9.46904 23.737 9.23105 24.2453 9.42757C24.2896 9.4447 24.9111 9.81791 24.9366 9.84856C25.0667 10.0009 25.0195 10.2975 25.1403 10.421C25.2072 10.4895 25.426 10.5129 25.5448 10.6193C25.6382 10.7032 25.9729 11.0818 26.0126 11.1674C26.2002 11.5686 25.4052 12.1067 25.6825 12.6954L25.2129 11.9742C25.1921 12.5205 25.3496 12.7053 25.7759 13.0109L25.5024 13.1552L25.6825 14.0467C25.3883 14.1107 25.0686 13.7114 24.8347 14.0025L25.542 14.3172L25.5891 14.1378L25.7627 14.2694L25.4939 16.03C25.3741 16.0831 25.3883 15.6477 25.2119 15.8506C25.1421 15.9308 25.4929 16.7656 25.3864 17.0549C25.3449 17.1685 25.1723 17.1703 25.1148 17.2731C25.0384 17.4101 25.0903 17.8365 25.0167 18.0511C24.7263 18.8957 23.2721 18.2963 23.2344 19.0553C23.2268 19.2122 23.3334 19.3654 23.3296 19.5051C23.3183 19.909 23.192 20.2696 23.3259 20.7176L23.7964 20.6266L23.5145 20.357L24.1633 20.5274L24.3113 20.2759L24.8328 20.5373C24.8366 20.0379 25.2289 20.1794 25.5467 20.0009C26.486 19.4727 26.981 19.122 28.0429 18.6884C28.1504 18.6442 28.3324 18.6749 28.3965 18.6244C28.4371 18.5928 28.5455 18.2007 28.6153 18.106L28.8878 18.1953C28.8256 17.6508 29.3697 17.8617 29.4348 17.8203C29.5074 17.7734 30.0063 17.1027 30.1477 16.9639C30.8427 16.286 31.8207 15.5873 32.362 14.7976C32.7939 14.1666 33.0277 13.4355 33.471 12.7937C34.1829 11.7624 35.2052 10.796 35.9266 9.73227C36.4783 8.91914 36.8894 8.01316 37.4232 7.19823L37.658 7.37672C37.5335 7.04948 37.3581 6.76642 37.3062 6.40673C37.2629 6.10925 37.3421 5.67383 37.2666 5.45027C37.2148 5.29882 36.6688 5.1609 37.013 4.68492C37.2261 4.63353 37.7495 4.76154 37.8475 4.53708C37.0563 4.04217 37.9013 2.90902 37.9418 2.36723C37.9607 2.11482 37.6571 1.78037 37.6618 1.74161C37.6712 1.65957 37.9381 1.64154 37.9513 1.54959C37.9654 1.44683 37.8466 1.29448 37.8673 1.13131C37.907 0.813993 38.3059 0.584117 38.3624 0.439881C38.4237 0.284828 38.1569 -0.0297862 38.6284 0.00176537C39.0122 0.0279081 38.8283 0.294744 38.9377 0.520112C39.0791 0.811288 39.363 1.31882 39.3536 1.65236C39.3488 1.81463 39.0631 2.08687 39.0999 2.36362C39.1187 2.50516 39.2857 2.62145 39.33 2.76208C39.4894 3.27592 39.5167 3.79426 39.3573 4.31171C40.704 4.4325 40.5521 6.29134 40.2815 7.22347L39.2847 7.93743L39.1687 9.54025L38.8868 9.36086C39.1065 9.71514 38.9754 10.1992 39.0763 10.622L39.1706 9.72145C39.3102 9.76021 39.3498 10.192 39.3564 10.3074C39.4073 11.1485 39.3734 11.976 39.4337 12.8306C39.5101 13.9106 39.5158 14.9987 39.6506 16.0669C39.7138 16.5699 39.8826 16.8287 39.8222 17.4209C39.8043 17.5958 39.6336 17.8401 39.6582 17.9582C39.7015 18.1664 40.3324 18.2593 40.0523 18.5559L39.644 18.6487C39.561 18.7587 40.1089 19.8261 40.1806 20.0695C40.2523 20.3129 40.4031 21.5226 40.5371 21.5289C41.431 20.8591 42.5014 21.3198 43.1756 22.0491L43.5368 21.8904C43.7999 21.7345 43.4293 21.7029 43.3718 21.6218C43.303 21.5235 43.3284 21.3613 43.2671 21.2675C43.1624 21.1071 42.8795 21.0007 42.9493 20.778C43.5321 20.1533 43.9404 21.108 44.0527 21.5993C44.1045 21.8237 44.0413 22.0626 44.0942 22.2808C44.1404 22.4755 44.3252 22.5629 44.3629 22.8352C44.4506 23.4707 44.2507 23.7826 43.7 24.1017C44.2884 24.4795 43.8942 24.7012 43.9084 24.9879C43.9159 25.1321 44.0791 25.298 44.0696 25.4576C44.0621 25.5865 43.9056 25.6676 43.9056 25.7992C43.9056 25.9561 44.1092 26.1292 44.0744 26.3104C43.6736 26.2968 43.7367 25.7614 43.5104 25.5432C43.4557 25.2628 43.7801 25.5811 43.8857 25.499C44.0678 25.3584 43.649 25.2809 43.6208 25.1772C43.5962 25.088 43.7132 24.841 43.6019 24.6886C43.3388 24.6453 43.4604 24.7328 43.4152 24.8247C43.3237 25.014 43.2209 25.2872 43.2247 25.499C42.9889 25.335 42.8409 25.3539 42.5655 25.4089C42.5287 25.2259 42.739 25.1736 42.7541 25.0014C42.7664 24.8644 42.6513 24.7202 42.6749 24.5705C42.7192 24.282 43.0408 24.3506 42.8484 23.8764C42.9144 23.8836 43.6811 23.8701 43.7235 23.8593C44.2035 23.7421 44.2611 22.8965 44.0734 22.5242C43.8339 22.4683 43.8471 22.7297 43.7264 22.7991C43.3577 23.0119 42.8644 22.8027 42.4712 22.7937C42.3128 23.3355 42.6909 23.4915 42.8484 23.8764L42.8512 23.8683ZM38.5133 3.04424L38.0409 3.09021C38.3059 3.49678 38.0663 3.85646 38.2332 4.3054H38.5133V3.04424ZM39.1725 3.04514H38.7962L38.8443 4.21615C39.1819 4.26934 39.0848 3.25248 39.1725 3.04514ZM39.0782 8.72352L39.0339 7.64085L38.2314 7.19191C38.2964 7.59307 38.2908 8.00504 38.3285 8.4053C38.4039 9.2004 38.419 10.0325 38.4539 10.8582C38.4747 11.345 38.5595 11.8381 38.5133 12.3303H38.7953C38.7953 12.2257 38.8019 12.1194 38.8 12.013C38.7793 11.0421 38.718 10.1668 38.6142 9.21212C38.5605 8.7127 38.5727 8.15108 38.5133 7.64175L38.8896 7.77697C38.253 7.90768 38.7585 7.97439 38.8632 8.10961C38.8849 8.13756 38.8811 8.70729 39.0773 8.72262L39.0782 8.72352ZM24.3679 12.6909C24.0218 12.69 23.6474 12.7351 23.3098 12.8045C23.1552 12.836 22.7497 12.9172 22.6714 13.0497C23.2099 12.8775 24.0162 13.1579 24.3679 12.6909ZM22.2923 13.1416C22.0905 13.1047 20.7316 13.4617 21.0673 13.7709C21.5209 13.5915 22.1886 13.7609 22.4809 13.4121L21.8217 13.4103L22.2923 13.1416ZM24.3679 13.2318L23.4768 13.1371L22.7657 13.3201C23.1382 13.2696 23.589 13.4283 23.9407 13.4139C24.0473 13.4103 24.3679 13.3823 24.3679 13.2318ZM24.0379 13.8619C23.6597 13.9349 23.0769 13.8087 22.6705 13.8619L23.2815 14.099C23.6672 13.7384 24.417 14.4037 24.5565 13.6825C24.3208 13.5689 24.0944 13.8511 24.0379 13.8619ZM22.2933 14.0413C22.1028 13.5779 21.6152 13.9205 21.387 13.9259C20.9815 13.9358 20.327 13.7078 20.0309 14.1315C20.4996 14.1495 20.8268 13.9331 21.3012 14.0422C21.4474 14.0756 21.47 13.9818 21.4455 14.2216L20.0309 14.5822C20.4195 14.5921 21.1192 14.5272 21.4728 14.3848C21.6897 14.2973 21.7435 13.8637 22.2933 14.0413ZM23.7078 14.7643L22.8261 14.6877C22.4998 14.7904 22.7987 15.2358 22.9128 15.3881C23.1854 15.7523 23.3872 15.8406 23.8445 15.6748C23.9718 16.0453 24.366 15.9155 24.2755 15.6207C24.2651 15.5864 24.1133 15.5936 24.0897 15.5098C24.0529 15.3809 24.1312 15.1654 23.9935 15.0717C23.8728 14.9888 23.6191 15.2285 23.5211 14.9888L23.7078 14.7643ZM33.42 15.1249C33.2399 15.0942 33.1645 15.1528 33.0372 15.2538C32.7448 15.4864 32.3676 16.0363 32.0074 16.3428C31.7405 16.5699 31.3576 16.7304 31.0964 16.9594C30.8946 17.1361 30.0195 18.0411 29.9242 18.2277C29.7545 18.5613 29.8903 18.756 30.2147 18.5054C30.739 18.0997 31.2001 17.3578 31.7216 16.8809C31.9772 16.6466 33.7831 15.4864 33.42 15.1249ZM21.1616 21.794C20.9211 21.3829 21.1126 18.2782 20.7373 18.2809C20.378 18.5135 20.5751 19.1319 20.5986 19.4997C20.6213 19.8432 20.6514 19.9405 20.6854 20.2209C20.7307 20.586 20.7269 20.9763 20.7835 21.3432C20.676 21.4577 20.3299 20.9331 20.1252 21.0737C20.1083 21.0854 20.0253 21.391 20.0422 21.4604C20.1139 21.7588 20.8863 21.812 21.1607 21.7931L21.1616 21.794ZM29.365 18.7299C29.0887 18.4892 29.0019 19.2789 28.7058 19.0914L28.9435 19.451C29.1821 19.5087 29.0265 19.278 29.101 19.204C29.1594 19.1463 29.3452 19.177 29.4216 19.0959C29.4348 19.0823 29.3792 18.7425 29.365 18.7299ZM21.3502 21.2089C21.2767 20.8393 21.404 20.2957 21.3502 19.9018H21.2559V21.3892C21.2559 21.4794 21.4813 21.8598 21.6322 21.885C21.6803 21.6597 21.3795 21.3577 21.3502 21.2089ZM39.362 21.5235C39.263 21.1386 39.2281 20.7383 39.1244 20.3534C39.0971 20.2507 39.131 20.0604 38.9858 20.0821C38.9132 20.5995 38.7557 20.9917 38.8915 21.5226H39.3611L39.362 21.5235ZM38.3238 21.254L38.2776 20.2633C38.0343 20.4697 37.8749 21.2504 38.3238 21.254ZM24.8394 21.7056L23.1429 21.7498C23.6003 22.2023 24.0897 22.2005 24.6376 21.9139C24.7602 21.849 24.8932 21.9616 24.8394 21.7056ZM17.2358 22.2114C17.0764 22.0797 16.9576 21.8219 16.6766 21.7958C16.5502 21.7841 16.0957 21.8922 16.2579 22.0644C16.3305 22.1419 16.818 22.022 17.1962 22.2979C17.6375 22.6197 17.6234 23.2111 18.0477 23.4193V23.5059C17.6734 23.477 17.7997 24.0152 17.8818 24.2532C17.9289 24.3884 18.127 24.4921 18.1279 24.5435C18.1279 24.5858 17.8327 24.8824 17.8082 25.0357C17.7884 25.1601 18.0421 25.3782 17.9534 25.5811C17.7526 25.5513 17.6206 25.4089 17.4857 25.6306L17.6724 26.3022L17.7658 25.7623L18.143 26.1679C18.5636 26.1183 18.1477 25.7902 18.1458 25.5495C18.1439 25.2773 18.4231 24.95 18.4231 24.8148C18.4231 24.575 17.8374 23.9521 17.9553 23.5978L18.2382 24.1387C18.5155 24.0666 18.3627 23.7601 18.473 23.5987C18.5457 23.7871 19.1266 24.0963 19.1681 24.1576C19.2067 24.2144 19.0266 24.4028 19.2294 24.4984C19.5151 24.6336 19.1171 24.1423 19.4142 24.2307C19.5075 24.2577 20.6166 24.85 20.6844 24.9104C20.8278 25.0384 20.7646 25.0113 20.6439 25.1276L20.2176 25.0411C20.3657 25.4404 21.9349 25.5549 22.1028 25.2637C22.2178 25.0654 21.7425 25.1979 22.0085 24.9924L22.3857 25.0393C22.2329 24.7436 21.7661 24.9167 21.4907 24.7688L21.8189 25.1303C21.5351 25.106 21.0956 25.243 20.9711 24.9518L21.3483 24.7715C20.3327 24.5038 19.0775 24.1207 18.5174 23.2399H18.3307L18.2844 23.5077C17.9657 22.9461 17.7431 22.635 17.2339 22.2123L17.2358 22.2114ZM34.1575 22.2673C34.0764 22.2213 33.9811 22.251 33.8944 22.2456C33.7473 22.9461 33.9519 23.5149 34.7884 23.5149C35.5437 23.5149 35.5428 23.2688 35.4947 22.6062C35.1297 22.6963 34.6526 22.7072 34.3235 22.5061C34.2178 22.4421 34.1858 22.2835 34.1575 22.2673ZM36.9903 22.6179C36.8291 22.5864 36.615 22.3069 36.483 22.5133L36.4396 23.2372C36.5292 23.3373 37.1412 22.818 36.9913 22.6188L36.9903 22.6179ZM41.5659 23.3012C41.4235 23.084 41.4301 22.7252 41.1029 22.6936C40.3475 22.6224 41.2962 23.706 41.7187 23.4166C41.7592 23.2778 41.5961 23.3472 41.5659 23.3012ZM13.806 25.2196C14.2294 25.1844 14.2926 24.7229 14.4454 24.4344C14.5774 24.1856 14.8641 24.0792 14.7481 23.688C14.5774 23.4662 13.7221 25.1348 13.806 25.2196ZM16.1532 24.7815C15.925 24.6805 15.742 25.161 15.7864 25.3106C15.9542 25.3674 16.0193 25.1619 16.1136 25.161C16.1739 25.1601 16.4427 25.4071 16.5398 25.3106C16.7511 25.1015 16.2899 24.9789 16.239 24.9419C16.1504 24.877 16.1617 24.7851 16.1532 24.7815ZM19.1813 26.8422C19.4349 26.8251 20.0781 27.4417 20.1309 26.8873C20.1686 26.4861 19.5047 26.368 19.2237 26.5682L19.1813 26.8422ZM20.658 26.6773C20.1139 26.8404 21.1409 27.3398 21.255 26.9774C21.3578 26.6502 20.8966 26.6051 20.658 26.6773ZM12.8856 27.3615C13.0837 27.5544 13.3854 27.466 13.5212 27.2488L12.7696 26.8431C12.7668 26.9937 12.7734 27.2524 12.8856 27.3615ZM22.5771 29.0067C22.8987 28.7353 22.9883 28.1791 23.0524 27.7924C23.0628 27.7284 23.2033 27.4687 23.0005 27.476C22.8883 27.4796 22.695 28.8056 22.5771 29.0067ZM12.8271 29.1554C12.8866 29.0598 12.8592 28.9228 12.9148 28.8345C12.9941 28.7101 13.4165 28.326 13.4165 28.2395L12.6744 27.8347C12.7432 28.1917 12.3575 28.6587 12.1849 29.0355C11.8398 29.7909 11.5116 30.5608 11.2589 31.3496C11.5154 31.4046 11.4201 31.2766 11.4918 31.1711C11.9426 30.5148 12.4084 29.827 12.8262 29.1545L12.8271 29.1554ZM22.86 29.5475C23.3164 29.1527 23.4353 28.4 23.4239 27.8347C23.2457 27.8627 23.2702 28.025 23.225 28.1394C23.0505 28.5839 22.9062 29.0707 22.86 29.5475ZM15.8797 28.2864L15.0423 28.9724C14.4633 30.5608 13.2364 31.8598 12.3726 33.2715C11.7445 34.2992 11.3174 35.4531 10.6205 36.4645C8.76553 39.1563 6.04772 41.6471 4.29746 44.4832C3.84198 45.2206 4.0221 45.5009 3.83915 46.2086C3.74391 46.5755 3.42328 47.0893 3.2441 47.4436C3.63734 47.9268 3.94288 47.5211 4.21353 47.5914C4.30878 47.6167 4.74729 47.9142 4.79821 48.0277C5.12356 47.513 5.61487 47.3282 6.10713 47.0208C6.32309 46.8865 6.29385 46.6106 6.77385 46.6737C7.45472 46.763 6.88513 47.2381 6.84458 47.3697C6.7748 47.5923 6.87287 47.8267 6.75499 48.0954C6.59185 48.4677 5.76764 48.8634 5.71012 49.178C5.65259 49.4926 6.12505 49.5783 6.16843 49.8812C6.21181 50.1841 5.91475 50.5753 5.99114 50.8484C6.08921 51.1964 6.94454 51.5687 7.05865 51.7283C7.17275 51.8878 7.1737 52.3097 7.25291 52.5342C7.73763 53.9135 8.9117 55.4946 9.67178 56.8027C10.28 57.8511 10.8581 58.9175 11.4456 59.9768C11.4437 60.2247 11.4456 60.185 11.3324 59.9948C10.1037 57.9079 8.86077 55.8129 7.57731 53.7539C7.51601 53.6556 7.47924 53.5538 7.48584 53.4384L7.30666 53.5646C9.07672 56.8405 11.3334 59.874 12.863 63.2644C13.0657 63.268 12.896 62.9381 12.8649 62.8561C12.5471 62.024 11.9945 61.109 11.5493 60.3247C12.2076 59.4864 11.6757 58.3541 11.4748 57.4238C11.1806 56.059 10.942 55.5595 11.6936 54.2596C12.2142 53.3591 13.7909 51.832 13.8786 50.8484C13.9116 50.4815 13.6683 49.9893 13.8984 49.562L13.6608 49.5711C13.4646 49.2465 13.8239 48.5046 13.8069 48.172C13.8041 48.117 13.6372 48.1296 13.6183 48.0593C13.508 47.6509 13.872 47.2804 13.7117 46.8585C13.9475 46.8189 13.8899 46.8946 13.9314 47.0605C13.9805 47.2597 13.7937 47.4508 14.088 47.3985C13.9239 46.6683 14.0833 45.9643 14.1823 45.2359L13.9013 45.5956C13.8258 44.8537 14.0389 44.1199 14.088 43.387C14.1163 42.9723 14.2473 41.1459 14.1342 40.9106C14.0512 40.7384 13.7268 40.6438 13.7353 40.3391C13.7428 40.0759 14.2492 39.342 14.335 38.9274C14.4369 38.4334 14.303 37.8086 14.7019 37.3029C14.8216 37.1515 14.9857 37.1587 15.031 37.1217C15.1517 37.0217 14.7613 37.0875 14.8443 36.8991L15.5101 36.3428C15.429 35.6072 14.8386 35.5703 15.3535 34.8158C15.7911 34.1739 16.4022 34.5832 16.7662 34.3353C16.8435 34.283 16.8105 34.146 16.8576 34.0955C17.1651 33.7673 17.4433 33.7412 17.1047 33.2932C16.951 33.0885 16.6209 32.9434 16.5361 32.8226C16.3635 32.5765 16.2409 31.9653 16.0862 31.6534C15.9316 31.3415 15.4591 30.7835 15.429 30.568C15.3988 30.3526 15.7354 29.4258 15.7882 29.049C15.8071 28.9129 15.7251 28.7768 15.7411 28.6371C15.7524 28.5361 15.9316 28.4414 15.8807 28.2891L15.8797 28.2864ZM23.6125 30.8096C23.7832 30.0407 23.936 29.2564 23.8955 28.4658L23.6974 29.7621C23.5861 30.0307 23.4381 30.2859 23.4258 30.5851C23.4183 30.7726 23.3683 30.8439 23.6125 30.8096ZM21.5973 29.6043C21.7595 29.4448 21.8529 29.3366 22.0415 29.1716C22.1141 29.1085 22.3168 29.0301 22.1527 28.9174L20.2252 30.0497L18.8993 31.3505C19.3595 31.2748 20.7222 30.541 20.9843 30.2264C21.1003 30.0866 20.9362 29.9271 21.1154 29.8189L21.2088 29.9983C21.3031 29.8162 21.4709 29.7287 21.5973 29.6043ZM21.6331 30.3598L20.8797 30.8556C20.7505 31.0945 21.2163 30.8006 21.0673 31.0341C20.941 31.2315 20.6005 31.4271 20.5977 31.7111C21.0749 31.3667 21.5087 30.9403 21.6331 30.3598ZM23.2514 31.2504L23.0948 30.8114C22.7157 31.1855 22.4847 31.7408 22.6714 32.252C23.1863 32.3015 23.225 31.6029 23.5182 31.3045L23.2514 31.2504ZM22.3866 32.2529L21.9566 31.8986L22.0575 31.4415C21.7171 31.6579 21.6699 32.334 22.149 32.3971C22.2037 32.4043 22.4206 32.3647 22.3857 32.2538L22.3866 32.2529ZM20.4072 32.8821C20.6448 32.8551 21.7831 32.3683 21.5379 32.0717C21.1588 32.307 20.6873 32.5449 20.4072 32.8821ZM24.7451 32.0726C24.5782 32.1681 23.655 32.2141 23.7087 32.4764C23.7729 32.7928 24.6753 32.2033 24.7451 32.0726ZM25.6872 32.6135C25.5222 32.5449 24.5659 32.993 24.7451 33.1534C25.0167 33.1354 25.2779 32.974 25.5005 32.8361C25.6127 32.7667 25.7428 32.8569 25.6872 32.6135ZM10.4111 32.883L9.95468 32.8965L9.88773 33.3328C10.5846 33.8674 10.397 33.523 10.4111 32.883ZM10.7874 34.3254C10.7072 34.2704 10.5394 34.3569 10.4526 34.411C9.1946 35.1899 8.36568 36.7692 7.6188 37.9222C6.72387 39.3024 5.74218 40.6339 5.13016 42.1682L5.86572 41.3848C6.85118 38.9184 8.82116 37.3372 10.3762 35.3747C10.4366 35.298 10.8506 34.6679 10.8581 34.6246C10.8656 34.5778 10.8006 34.3344 10.7874 34.3254ZM23.4136 35.0375C23.4268 35.0285 23.5616 34.768 23.4249 34.7328L21.917 34.3263C21.8481 34.6219 22.2282 34.4975 22.3413 34.6886C22.4036 34.7941 22.3583 34.9789 22.4036 35.0312C22.4856 35.1268 23.3542 35.079 23.4136 35.0375ZM17.5781 34.9573C17.3046 34.9122 17.1754 35.1114 17.0123 35.2719L17.2018 35.362L17.0114 35.6352L17.3886 35.6776C17.1858 35.2259 17.3942 35.3025 17.5781 34.9573ZM25.8777 36.8495C26.2191 36.6854 26.0324 36.0336 25.9399 35.7524C25.9116 35.6649 25.8117 35.4071 25.6891 35.408C25.7608 35.9101 25.9692 36.3167 25.8777 36.8495ZM24.0822 35.9534C23.8276 35.8831 23.8728 36.1761 23.7087 36.3546C23.49 36.5917 22.8176 37.1884 22.5498 37.32C22.3838 37.4012 21.569 37.5139 21.6341 37.7951C21.7454 38.2801 23.0656 37.2732 23.258 37.1208C23.4089 37.0009 23.5258 36.7016 23.7135 36.6223C23.82 36.5772 23.9483 36.6692 23.9766 36.653C24.0096 36.634 24.3755 36.168 24.4603 36.0832C24.3076 35.8768 24.2727 35.9895 24.1322 36.1283L24.0822 35.9534ZM21.3502 36.9387C21.6171 36.9775 22.3989 36.616 22.3734 36.3699C22.3602 36.241 22.1131 35.902 22.0113 36.0895C22.0066 36.5403 21.602 36.653 21.3502 36.9387ZM24.4622 36.3996C24.2189 36.341 24.2962 36.4772 24.2151 36.5673C23.9643 36.8468 23.3758 37.6356 23.1335 37.7879C22.7327 38.0403 21.735 38.2684 21.287 38.034L21.1607 38.1999C22.6177 38.6587 23.9011 37.5842 24.4613 36.3987L24.4622 36.3996ZM18.2382 38.382C18.0902 38.0142 18.1364 37.4481 18.0468 36.9856C18.0185 36.8387 18.1081 36.8296 17.862 36.8504C17.8356 37.522 17.9299 38.1999 18.1458 38.8327C18.3231 38.8336 18.226 38.5046 18.2392 38.3829C18.3608 38.6849 18.3901 38.9517 18.4966 39.2681C18.5475 39.4196 18.4551 39.5061 18.7107 39.4646C18.7993 39.1527 18.5438 38.858 18.5249 38.5983C18.4985 38.2251 18.7154 37.7482 18.5211 37.302C18.3156 37.3813 18.4721 37.7762 18.4259 37.9601C18.408 38.0331 18.2882 37.9403 18.2392 38.3829L18.2382 38.382ZM19.1803 37.0307C18.9644 36.9955 18.9955 37.0487 18.9464 37.2074C18.8031 37.6671 18.7371 38.281 18.8993 38.7426L19.1803 37.0307ZM24.0859 45.143C23.8832 44.942 24.7555 43.7521 24.8187 43.4555C24.9177 42.9876 24.8394 42.4197 24.9601 41.8779C25.0658 41.4073 25.3185 40.9295 25.4364 40.44C25.6476 39.562 25.79 38.6741 25.9635 37.7888L25.7353 37.4805C25.7419 38.0584 25.7542 38.409 25.6061 38.9788C25.2308 40.4238 24.8583 42.1177 24.4141 43.5186C24.1878 44.2325 23.6107 44.8158 23.8973 45.5929C24.1067 45.7641 25.0337 44.9627 25.1214 44.7347C25.1638 44.6247 25.0969 44.5553 24.9828 44.6021C24.7621 44.6923 24.5056 45.2503 24.0859 45.143ZM18.143 39.8243C17.9459 39.0716 17.5442 38.455 17.4819 37.6617C17.2386 37.796 17.5809 38.2522 17.4819 38.4721L17.1066 37.7519C17.2829 38.1773 16.9123 38.3036 16.9133 38.3387C16.9161 38.4658 17.2999 39.3853 17.5743 39.1437L18.143 39.8243ZM19.6028 39.6035C19.4689 39.2862 19.3623 38.9697 19.2284 38.6533C19.1652 38.8544 19.2661 39.1708 19.3218 39.3754C19.5377 40.1669 19.8518 41.2234 20.2026 41.959C20.3912 42.3548 20.6769 43.002 21.1616 43.0696C21.2682 42.9696 19.5726 40.9917 20.0328 40.5068L19.8659 40.4409C20.0338 40.1263 19.7018 39.8406 19.6028 39.6035ZM17.6724 41.4461C17.7563 41.3595 16.9736 39.4538 16.7303 39.2835C16.7322 39.9722 16.9501 40.678 17.3735 41.2369C17.4584 41.3487 17.4716 41.4876 17.6724 41.4461ZM21.2776 40.166C21.2918 40.1903 21.7133 40.45 21.7765 40.4572C22.28 40.5113 22.6158 40.01 22.3451 39.6395C22.2565 39.5187 21.4926 39.4033 21.3436 39.5034C21.2257 39.5827 21.2097 40.0551 21.2776 40.166ZM16.7247 40.3688C16.6662 40.331 16.4437 40.3508 16.4003 40.4581C16.438 40.7123 16.2239 40.7979 16.1758 40.8917C16.0193 41.2009 15.6157 42.8046 15.6062 43.1228C15.5902 43.6935 15.9391 44.5913 15.4101 45.052C15.0433 44.4128 15.6572 43.954 15.5025 43.249C15.3592 43.2833 15.2686 43.46 15.2413 43.5835C15.1611 43.9396 15.0687 44.713 15.0338 45.098C15.0206 45.2476 14.982 45.8967 15.0942 45.9571C15.6562 46.1644 15.9014 45.7371 16.09 45.2963C16.339 44.7157 16.6587 42.1411 16.6068 41.502C16.5917 41.3199 16.4267 41.1847 16.4484 40.9953L17.2009 41.4452C17.2669 41.3785 16.7756 40.4004 16.7247 40.367V40.3688ZM18.1864 40.6852C18.1232 40.6095 18.0666 40.5302 18.0015 40.4563C17.8723 40.4292 17.8224 40.4626 17.862 40.5897C18.027 41.1134 18.5202 41.7598 18.7569 42.2583C19.0219 42.8172 19.0398 43.4023 19.4896 43.8161L20.0281 44.8735C20.0847 44.0568 19.4255 43.3915 19.1105 42.7316C18.8691 42.225 18.4787 41.035 18.1854 40.6861L18.1864 40.6852ZM22.3885 42.7081C23.6191 42.6378 24.3311 41.6967 24.6499 40.6357C24.2491 41.0864 24.1133 41.6498 23.5824 42.0465L22.3885 42.7081ZM18.9917 43.3401C18.7475 42.7244 18.4646 41.9843 17.9563 41.5371C18.1807 42.1853 18.4551 42.8695 18.9917 43.3401ZM24.2265 42.0798C24.1765 42.0843 23.7238 42.6649 23.5645 42.7974C23.3164 43.0029 22.0188 43.6583 22.0122 43.7457C22.0037 43.8719 22.2536 43.8846 22.3923 43.8413C22.7091 43.7421 24.0397 42.6604 24.2595 42.3791C24.3509 42.2619 24.3641 42.0681 24.2265 42.0798ZM3.21581 44.1244C3.34878 44.0081 3.62037 43.3698 3.52607 43.2499C2.89612 43.4275 2.72638 43.9053 2.39632 44.3777C2.55286 44.4786 3.10548 44.2208 3.21581 44.1244ZM21.5398 51.6336C21.7086 51.6553 21.7868 51.594 21.7982 51.4272C21.9528 49.2546 23.1146 47.5878 23.5918 45.6181C23.6295 45.4612 23.6191 45.3017 23.6125 45.1439L22.3197 48.2793C22.0698 49.3989 21.5369 50.4662 21.5398 51.6336ZM24.0859 48.208C24.4584 47.806 24.913 47.2236 24.9328 46.6764L24.0859 48.208ZM4.75295 49.3809C4.71334 49.4656 4.83499 49.6495 4.8944 49.6495C4.96418 49.6495 5.66674 48.8174 5.8346 48.657C6.08827 48.4145 6.57959 48.2693 6.54375 47.8483C6.25142 48.2558 5.74218 48.355 5.40835 48.7011C5.1311 48.9887 5.13487 49.443 4.752 49.3817L4.75295 49.3809ZM26.4426 49.2006C26.2247 49.1474 26.1748 49.3917 26.0871 49.5341C26.0135 49.6522 25.559 50.4221 25.5948 50.4617C25.7372 50.6204 25.8013 50.3382 25.8371 50.2913C26.0833 49.9731 26.3436 49.5891 26.4426 49.2006ZM15.8288 50.0624C15.742 49.9326 15.6091 49.8217 15.5968 49.6513C15.4016 49.6405 15.5374 49.9064 15.577 49.9857C15.8316 50.4924 16.2268 51.2135 16.5257 51.694C16.6162 51.8392 16.6964 52.1339 16.918 52.0835C16.6624 51.3695 16.2532 50.697 15.8288 50.0624ZM26.6321 50.5519L26.8188 49.9217C26.2096 50.4608 26.0908 51.2956 25.7825 51.9942C25.9975 52.0231 26.0248 51.9987 26.1455 51.8464C26.286 51.6697 27.097 50.4788 27.0065 50.3725L26.6321 50.5519ZM22.9524 50.4626C22.8147 50.3319 22.1405 51.246 22.0679 51.374C21.8463 51.7689 21.7001 52.2656 21.7274 52.7154L22.181 51.6625L22.9524 50.4626ZM25.1223 50.7331C24.9139 50.6997 24.7291 51.0873 24.648 51.2262C24.5103 51.4633 24.0379 52.3701 23.9898 52.5802C23.9784 52.6298 23.9671 52.7289 24.0379 52.7163L24.6508 52.0862L24.2746 53.7981C25.0422 52.9227 24.9177 51.7851 25.1223 50.7331ZM23.6135 51.0937C23.3466 51.0423 23.4626 51.1667 23.3957 51.2866C23.1269 51.767 22.9703 52.3052 22.5771 52.7145C22.8515 52.9534 23.5993 51.2785 23.6135 51.0937ZM26.9131 51.905C26.7971 51.7905 26.1851 52.628 26.121 52.7244C25.9824 52.9317 25.7825 53.1824 25.7834 53.4375C26.0258 53.378 27.0008 51.9915 26.9131 51.905ZM12.1076 57.0425C12.0831 56.5079 11.7436 56.0049 11.9134 55.4757L11.4494 55.3297C11.6182 55.6335 11.4296 56.0391 11.4692 56.2546C11.4946 56.3952 11.9935 56.8838 12.1086 57.0416L12.1076 57.0425ZM11.8907 67.2958C12.0699 66.7585 11.539 66.736 11.3098 66.3385L10.6007 66.8244L10.7883 67.1381C9.73779 66.8379 10.4686 68.4353 11.2127 67.7682L11.1674 68.0395C11.3994 67.9891 11.307 67.7132 11.4051 67.5888C11.4475 67.5347 11.8568 67.3977 11.8907 67.2958ZM21.6322 68.401C21.5728 67.8439 21.7765 67.2994 21.8566 66.7594C21.8793 66.6089 21.9623 66.5395 21.7746 66.4187C21.7322 66.8514 21.5784 67.2958 21.5407 67.7267C21.5285 67.8683 21.4596 68.3415 21.6322 68.401ZM17.5772 71.8266C17.5027 71.0991 16.9331 70.4248 16.504 69.8344L15.693 68.4019L15.9269 69.033L17.5772 71.8266ZM24.5556 72.0069C24.6291 71.9348 23.7681 70.798 23.6503 70.6646C23.505 70.4997 23.341 70.3113 23.142 70.2049C23.3494 70.6547 23.7285 71.2605 24.0454 71.6391C24.1114 71.7185 24.45 72.1106 24.5556 72.0069ZM11.92 73.9C12.0312 73.3086 12.0105 72.8606 11.8737 72.2756C11.8502 72.1764 11.8728 71.9835 11.7332 72.0069C11.6022 72.5244 11.5635 73.2546 11.7295 73.7675C11.771 73.8964 11.6729 73.9271 11.92 73.9ZM12.4848 74.3508C12.482 73.8135 12.4622 73.2158 12.3905 72.6848C12.3726 72.5487 12.3509 72.1466 12.2038 72.098C12.3085 72.7353 12.0982 73.5638 12.2698 74.156C12.316 74.3156 12.2396 74.3904 12.4848 74.3508ZM14.1361 74.8898C13.9805 74.8907 13.3854 73.9036 13.8051 73.8099C13.8069 74.3174 14.6858 74.4544 14.1361 74.8898ZM20.6892 77.8665L20.394 77.0236L19.2765 75.0728C19.3491 75.629 19.7942 76.0888 19.963 76.6243L20.6892 77.8665ZM29.0821 75.0728C28.7228 75.218 28.1212 75.0106 27.992 75.346L27.6685 75.254V75.5209L28.3277 75.6128L28.2343 75.3433L29.0821 75.4325V75.0728ZM17.3395 76.6946C16.9274 76.7198 16.735 76.0879 17.0698 75.9815C17.6253 75.8057 17.563 76.6558 17.3395 76.6946ZM17.8987 77.5627C17.8158 77.4176 17.8865 77.1958 17.6734 77.1462C17.4037 77.7349 17.8818 77.8999 17.944 78.4461C19.1303 78.6165 18.093 77.9008 17.8987 77.5627Z" fill="white"/>
<path d="M16.7247 40.3688C16.7756 40.4013 17.2669 41.3803 17.2009 41.447L16.4484 40.9972C16.4267 41.1865 16.5917 41.3217 16.6068 41.5038C16.6587 42.1429 16.339 44.7175 16.09 45.2981C15.9014 45.7389 15.6553 46.1662 15.0942 45.9589C14.9829 45.8985 15.0206 45.2494 15.0338 45.0998C15.0678 44.7148 15.1611 43.9414 15.2413 43.5853C15.2696 43.4609 15.3601 43.2842 15.5025 43.2508C15.6572 43.9549 15.0433 44.4146 15.4101 45.0538C15.9391 44.5931 15.5902 43.6953 15.6062 43.1246C15.6157 42.8064 16.0193 41.2018 16.1758 40.8935C16.2239 40.7988 16.438 40.7141 16.4003 40.4599C16.4437 40.3517 16.6662 40.3328 16.7247 40.3706V40.3688Z" fill="white"/>
<path d="M24.0859 45.143C24.5056 45.2503 24.7621 44.6923 24.9828 44.6021C25.0969 44.5553 25.1638 44.6247 25.1214 44.7347C25.0337 44.9627 24.1067 45.7641 23.8973 45.5929C23.6107 44.8158 24.1878 44.2325 24.4141 43.5186C24.8583 42.1177 25.2308 40.4238 25.6061 38.9788C25.7542 38.409 25.7419 38.0584 25.7353 37.4805L25.9635 37.7888C25.79 38.6741 25.6476 39.562 25.4364 40.44C25.3185 40.9295 25.0658 41.4073 24.9601 41.8779C24.8394 42.4197 24.9177 42.9876 24.8187 43.4555C24.7555 43.7521 23.8832 44.942 24.0859 45.143Z" fill="white"/>
<path d="M11.8907 67.2958C11.8568 67.3977 11.4475 67.5347 11.4051 67.5888C11.3079 67.7132 11.4003 67.99 11.1674 68.0395L11.2127 67.7682C10.4686 68.4353 9.73779 66.8379 10.7883 67.1381L10.6007 66.8244L11.3098 66.3385C11.539 66.736 12.0699 66.7585 11.8907 67.2958Z" fill="white"/>
<path d="M21.5398 51.6336C21.5369 50.4662 22.0698 49.3989 22.3197 48.2793L23.6125 45.1439C23.6191 45.3017 23.6295 45.4612 23.5918 45.6181C23.1146 47.5878 21.9528 49.2546 21.7982 51.4272C21.7859 51.5931 21.7086 51.6544 21.5398 51.6336Z" fill="white"/>
<path d="M21.5973 29.6043C21.4709 29.7287 21.3031 29.8162 21.2088 29.9983L21.1154 29.8189C20.9362 29.9271 21.1003 30.0866 20.9843 30.2264C20.7222 30.541 19.3595 31.2748 18.8993 31.3505L20.2252 30.0497L22.1527 28.9174C22.3168 29.0301 22.1141 29.1085 22.0415 29.1716C21.8529 29.3366 21.7595 29.4448 21.5973 29.6043Z" fill="white"/>
<path d="M25.1223 50.7331C24.9177 51.7851 25.0422 52.9227 24.2746 53.7981L24.6508 52.0862L24.0379 52.7163C23.9671 52.7289 23.9784 52.6298 23.9898 52.5802C24.0379 52.3701 24.5103 51.4633 24.648 51.2262C24.7291 51.0873 24.9139 50.6997 25.1223 50.7331Z" fill="white"/>
<path d="M18.1864 40.6852C18.4797 41.0341 18.8701 42.2232 19.1115 42.7307C19.4255 43.3906 20.0856 44.0559 20.029 44.8726L19.4906 43.8152C19.0408 43.4023 19.0219 42.8172 18.7578 42.2574C18.5211 41.758 18.0279 41.1116 17.8629 40.5888C17.8233 40.4626 17.8733 40.4283 18.0025 40.4554C18.0675 40.5302 18.1241 40.6095 18.1873 40.6843L18.1864 40.6852Z" fill="white"/>
<path d="M19.6028 39.6035C19.7028 39.8406 20.0347 40.1254 19.8659 40.4409L20.0328 40.5068C19.5726 40.9917 21.2682 42.9696 21.1616 43.0696C20.6769 43.002 20.3921 42.3539 20.2026 41.959C19.8518 41.2234 19.5377 40.1669 19.3218 39.3754C19.2661 39.1708 19.1652 38.8544 19.2284 38.6533C19.3623 38.9697 19.4689 39.2862 19.6028 39.6035Z" fill="white"/>
<path d="M24.0822 35.9534L24.1322 36.1283C24.2727 35.9895 24.3076 35.8768 24.4603 36.0832C24.3755 36.168 24.0096 36.634 23.9766 36.653C23.9483 36.6692 23.82 36.5772 23.7135 36.6223C23.5258 36.7016 23.4089 37.0009 23.258 37.1208C23.0656 37.2732 21.7454 38.2801 21.6341 37.7951C21.569 37.5139 22.3838 37.4012 22.5498 37.32C22.8176 37.1884 23.49 36.5917 23.7087 36.3546C23.8728 36.1761 23.8276 35.8831 24.0822 35.9534Z" fill="white"/>
<path d="M21.2776 40.166C21.2097 40.0551 21.2257 39.5827 21.3436 39.5034C21.4926 39.4024 22.2574 39.5178 22.3451 39.6395C22.6158 40.01 22.2791 40.5122 21.7765 40.4572C21.7133 40.45 21.2918 40.1903 21.2776 40.166Z" fill="white"/>
<path d="M18.143 39.8243L17.5743 39.1437C17.2999 39.3853 16.9161 38.4658 16.9133 38.3387C16.9133 38.3045 17.2829 38.1773 17.1066 37.7519L17.4819 38.4721C17.5809 38.2522 17.2386 37.796 17.4819 37.6617C17.5442 38.455 17.9459 39.0716 18.143 39.8243Z" fill="white"/>
<path d="M26.6321 50.5519L27.0065 50.3725C27.097 50.4788 26.286 51.6697 26.1455 51.8464C26.0248 51.9987 25.9975 52.0231 25.7825 51.9942C26.0908 51.2956 26.2096 50.4608 26.8188 49.9217L26.6321 50.5519Z" fill="white"/>
<path d="M23.2514 31.2504L23.5182 31.3045C23.225 31.6029 23.1863 32.3015 22.6714 32.252C22.4847 31.7408 22.7157 31.1855 23.0948 30.8114L23.2514 31.2504Z" fill="white"/>
<path d="M24.4622 36.3996C23.9021 37.5851 22.6177 38.6596 21.1616 38.2008L21.288 38.0349C21.7359 38.2684 22.7336 38.0412 23.1344 37.7888C23.3768 37.6365 23.9652 36.8468 24.2161 36.5682C24.2972 36.4781 24.2199 36.341 24.4632 36.4005L24.4622 36.3996Z" fill="white"/>
<path d="M17.6724 41.4461C17.4716 41.4876 17.4584 41.3487 17.3735 41.2369C16.9501 40.678 16.7322 39.9722 16.7303 39.2835C16.9736 39.4538 17.7563 41.3595 17.6724 41.4461Z" fill="white"/>
<path d="M23.4136 35.0375C23.3542 35.079 22.4856 35.1268 22.4036 35.0312C22.3583 34.9789 22.4036 34.7941 22.3413 34.6886C22.2282 34.4975 21.8481 34.6219 21.917 34.3263L23.4249 34.7328C23.5616 34.768 23.4268 35.0285 23.4136 35.0375Z" fill="white"/>
<path d="M24.2265 42.0798C24.3641 42.0681 24.3509 42.2619 24.2595 42.3791C24.0397 42.6604 22.7091 43.7421 22.3923 43.8413C22.2536 43.8846 22.0037 43.8719 22.0122 43.7457C22.0188 43.6583 23.3164 43.0029 23.5645 42.7974C23.7238 42.6649 24.1765 42.0843 24.2265 42.0798Z" fill="white"/>
<path d="M12.1076 57.0425C11.9926 56.8838 11.4937 56.3961 11.4682 56.2555C11.4296 56.04 11.6172 55.6344 11.4484 55.3306L11.9124 55.4766C11.7427 56.0058 12.0831 56.5088 12.1067 57.0434L12.1076 57.0425Z" fill="white"/>
<path d="M22.3885 42.7081L23.5824 42.0465C24.1133 41.6498 24.2491 41.0864 24.6499 40.6357C24.3311 41.6967 23.6191 42.6378 22.3885 42.7081Z" fill="white"/>
<path d="M22.9524 50.4626L22.181 51.6625L21.7274 52.7154C21.7001 52.2656 21.8463 51.7689 22.0679 51.374C22.1405 51.246 22.8147 50.3319 22.9524 50.4626Z" fill="white"/>
<path d="M15.8288 50.0624C16.2532 50.697 16.6624 51.3695 16.918 52.0835C16.6964 52.1339 16.6162 51.8392 16.5257 51.694C16.2268 51.2135 15.8316 50.4924 15.577 49.9857C15.5374 49.9064 15.4016 49.6405 15.5968 49.6513C15.6091 49.8217 15.742 49.9326 15.8288 50.0624Z" fill="white"/>
<path d="M24.5556 72.0069C24.45 72.1106 24.1114 71.7185 24.0454 71.6391C23.7285 71.2605 23.3494 70.6547 23.142 70.2049C23.341 70.3113 23.505 70.4997 23.6503 70.6646C23.7681 70.798 24.6291 71.9348 24.5556 72.0069Z" fill="white"/>
<path d="M18.2382 38.382C18.225 38.5037 18.3231 38.8336 18.1449 38.8318C17.9289 38.199 17.8356 37.522 17.861 36.8495C18.1081 36.8287 18.0176 36.8378 18.0459 36.9847C18.1354 37.4472 18.0902 38.0133 18.2373 38.3811C18.2854 37.9385 18.4051 38.0304 18.424 37.9583C18.4702 37.7744 18.3137 37.3786 18.5193 37.3002C18.7135 37.7464 18.4966 38.2233 18.523 38.5965C18.5419 38.8562 18.7974 39.1509 18.7088 39.4628C18.4532 39.5043 18.5466 39.4178 18.4947 39.2663C18.3882 38.9499 18.3589 38.684 18.2373 38.3811L18.2382 38.382Z" fill="white"/>
<path d="M26.9131 51.905C27.0008 51.9915 26.0258 53.378 25.7834 53.4375C25.7825 53.1824 25.9824 52.9317 26.121 52.7244C26.1851 52.628 26.7971 51.7905 26.9131 51.905Z" fill="white"/>
<path d="M22.86 29.5475C22.9062 29.0707 23.0505 28.5839 23.225 28.1394C23.2702 28.025 23.2457 27.8627 23.4239 27.8347C23.4353 28.4 23.3164 29.1527 22.86 29.5475Z" fill="white"/>
<path d="M21.6331 30.3598C21.5087 30.9403 21.0749 31.3667 20.5977 31.7111C20.6005 31.4271 20.941 31.2315 21.0673 31.0341C21.2163 30.8006 20.7505 31.0945 20.8797 30.8556L21.6331 30.3598Z" fill="white"/>
<path d="M17.9563 41.5371C18.1807 42.1853 18.4551 42.8695 18.9917 43.3401C18.7475 42.7244 18.4646 41.9843 17.9563 41.5371Z" fill="white"/>
<path d="M19.1803 37.0307L18.8993 38.7426C18.7371 38.281 18.8031 37.6671 18.9464 37.2074C18.9964 37.0478 18.9644 36.9955 19.1803 37.0307Z" fill="white"/>
<path d="M23.6125 30.8096C23.3683 30.8439 23.4183 30.7726 23.4258 30.5851C23.4381 30.2859 23.5861 30.0307 23.6974 29.7621L23.8955 28.4658C23.936 29.2564 23.7832 30.0407 23.6125 30.8096Z" fill="white"/>
<path d="M21.3502 36.9387C21.602 36.653 22.0066 36.5403 22.0113 36.0895C22.1131 35.902 22.3602 36.241 22.3734 36.3699C22.3989 36.616 21.6171 36.9775 21.3502 36.9387Z" fill="white"/>
<path d="M23.6135 51.0937C23.5993 51.2785 22.8515 52.9534 22.5771 52.7145C22.9703 52.3052 23.1269 51.767 23.3957 51.2866C23.4626 51.1667 23.3466 51.0423 23.6135 51.0937Z" fill="white"/>
<path d="M26.4426 49.2006C26.3436 49.5891 26.0833 49.9731 25.8371 50.2913C25.8013 50.3382 25.7372 50.6204 25.5948 50.4617C25.559 50.4221 26.0144 49.6531 26.0871 49.5341C26.1748 49.3917 26.2247 49.1474 26.4426 49.2006Z" fill="white"/>
<path d="M21.5379 32.0717C21.1588 32.307 20.6873 32.5449 20.4072 32.8821C20.6448 32.8551 21.7831 32.3683 21.5379 32.0717Z" fill="white"/>
<path d="M24.9328 46.6764L24.0859 48.208C24.4584 47.806 24.913 47.2236 24.9328 46.6764Z" fill="white"/>
<path d="M22.5771 29.0067C22.695 28.8056 22.8883 27.4796 23.0005 27.476C23.2033 27.4687 23.0628 27.7284 23.0524 27.7924C22.9883 28.1791 22.8987 28.7353 22.5771 29.0067Z" fill="white"/>
<path d="M25.8777 36.8495C25.9692 36.3167 25.7608 35.9101 25.6891 35.408C25.8117 35.4071 25.9116 35.6649 25.9399 35.7524C26.0324 36.0336 26.2191 36.6854 25.8777 36.8495Z" fill="white"/>
<path d="M21.6322 68.401C21.4596 68.3415 21.5285 67.8683 21.5407 67.7267C21.5784 67.2958 21.7322 66.8514 21.7746 66.4187C21.9623 66.5395 21.8793 66.6089 21.8566 66.7594C21.7765 67.2994 21.5728 67.8439 21.6322 68.401Z" fill="white"/>
<path d="M22.3866 32.2529C22.4215 32.3637 22.2037 32.4025 22.1499 32.3962C21.6699 32.334 21.718 31.657 22.0584 31.4406L21.9575 31.8977L22.3876 32.252L22.3866 32.2529Z" fill="white"/>
<path d="M24.7451 32.0726C24.6753 32.2033 23.7719 32.7919 23.7087 32.4764C23.6559 32.215 24.5782 32.1681 24.7451 32.0726Z" fill="white"/>
<path d="M25.6872 32.6135C25.7428 32.8569 25.6127 32.7667 25.5005 32.8361C25.2779 32.974 25.0167 33.1354 24.7451 33.1534C24.5659 32.993 25.5222 32.5449 25.6872 32.6135Z" fill="white"/>
<path d="M17.5781 34.9573C17.3942 35.3025 17.1858 35.2259 17.3886 35.6776L17.0114 35.6352L17.2018 35.362L17.0123 35.2719C17.1745 35.1105 17.3037 34.9122 17.5781 34.9573Z" fill="white"/>
<path d="M43.9829 26.3933L43.898 26.7142C44.1988 26.9774 44.2639 27.8726 44.1498 28.3098C44.1177 28.4342 43.9386 28.4829 43.9838 28.6461L44.3601 28.3765C44.3874 28.5875 44.2752 28.8705 44.295 29.0662C44.3205 29.3168 44.5204 29.4493 44.4601 29.8685C44.4365 30.0298 44.2168 30.3075 44.2667 30.3589C44.4506 30.5491 44.4233 30.0434 44.643 30.1795C44.5742 30.3877 44.5685 30.5698 44.5817 30.7835C44.5968 31.0404 44.7995 31.9392 44.7958 32.0284C44.7911 32.1348 44.6477 32.2411 44.6619 32.3737C44.6769 32.5197 44.8788 32.6423 44.9108 32.7712C44.958 32.9605 44.8288 33.1102 44.8354 33.2851C44.842 33.4708 45.007 34.2884 45.0494 34.539C45.0787 34.713 45.2673 34.8185 45.2871 34.9275C45.3116 35.0664 45.1164 35.1962 45.1334 35.3485C45.1503 35.5009 45.3833 35.6298 45.3899 35.8074C45.3946 35.921 45.2965 36.0553 45.3003 36.1779C45.3248 37.0775 45.5973 37.952 45.6813 38.7912C45.7501 39.4755 45.8161 40.0028 46.017 40.7204C46.0613 40.8791 46.0283 41.1883 46.0717 41.2541C46.0972 41.2928 46.4762 41.365 46.596 41.429C47.6513 41.9951 47.1533 43.4843 46.0198 43.3392C45.7944 43.3103 45.6219 43.103 45.5398 43.0985C45.4776 43.0949 44.7118 43.5438 44.4223 43.624C43.2115 43.9612 42.1657 43.826 41.0567 43.2995C40.6917 43.1264 39.9279 42.7631 39.9279 42.3494C39.8656 42.2872 39.4233 43.0426 38.9377 42.6225C38.7236 42.4377 38.6001 42.1691 38.9858 42.1682L39.0725 42.4909C39.1998 42.5585 39.4167 42.5666 39.5101 42.4431C39.7261 42.1582 39.0461 41.7355 39.1753 41.6291L40.2117 41.7183C40.3239 41.2 39.9316 40.9575 39.429 41.1053C39.0395 41.2198 39.0971 41.8824 38.7991 42.0798C38.5727 41.4515 39.2762 41.1621 39.3969 40.8051C39.5016 40.4959 39.3309 40.1498 39.6365 40.056L39.5525 39.8279H39.9288L39.6666 40.3995C39.6742 40.706 39.9939 40.6339 40.124 40.7916C40.2674 40.9638 40.4635 41.5119 40.306 41.7201L41.9403 41.8148C42.3675 40.8178 43.1266 41.0747 43.4322 41.9771L44.9674 42.1736C44.9438 41.7697 45.6775 41.4461 45.6888 41.3929C45.703 41.3271 45.5049 40.2598 45.4719 40.074C45.4238 39.8081 45.4069 39.3466 45.3852 39.2591C45.354 39.1365 45.1343 39.0707 45.1136 38.8796C45.0928 38.6885 45.2777 38.4829 45.2645 38.3423C45.2286 37.9556 44.9863 37.2515 44.9325 36.7936C44.8495 36.0778 44.9004 35.2593 44.8146 34.5742C44.7901 34.3812 44.543 33.9972 44.5487 33.7439H44.8326C44.643 33.6168 44.4016 33.1084 44.3742 32.9082C44.3469 32.7081 44.5449 32.6225 44.5355 32.4945C44.5242 32.3349 44.2328 32.1835 44.263 31.9455C44.2799 31.8084 44.4657 31.6958 44.4468 31.5912C44.4214 31.446 43.782 30.9917 44.4553 30.678C43.8688 30.4364 44.2234 30.1191 44.1743 29.7828C44.1281 29.4664 43.9244 28.8417 43.8895 28.5054C43.8612 28.235 44.0602 28.0484 44.0536 27.9718C44.047 27.8951 43.8282 27.805 43.7933 27.6094C43.7396 27.3065 43.8433 26.8026 43.699 26.4447L43.9838 26.396L43.9829 26.3933ZM42.9314 41.4605C41.8233 41.4245 42.0657 42.0041 43.0399 41.8968L42.9314 41.4605ZM45.6803 42.8911C46.3112 43.6421 47.2901 42.6757 46.894 41.9545C46.5385 41.3073 45.321 41.3713 45.3041 42.1682H46.3404C46.4951 42.3133 45.8972 42.9092 45.6803 42.8911Z" fill="white"/>
<path d="M31.2511 42.1691L31.103 42.5297L31.7792 43.1535C32.0894 43.0741 32.2563 42.8758 32.6147 42.8848C32.9004 42.892 33.6765 43.1769 33.4681 43.5204C33.271 43.0174 31.9432 43.0174 31.8254 43.3942C31.6632 43.9098 32.5911 43.6213 32.8071 43.6105C33.2258 43.5898 33.1569 43.6105 33.5803 43.5366C33.653 43.524 33.8765 43.7025 34.1254 43.7124C34.9025 43.7421 35.9417 43.6204 36.747 43.6304L37.9013 43.8819L37.3817 44.3344C37.7089 44.7987 38.5774 44.192 38.5143 43.7025C38.7868 43.8332 38.4643 44.2587 38.3285 44.3822C37.7844 44.8771 37.5609 44.5327 37.1695 44.6193C37.0394 44.6481 36.7178 44.9204 36.5339 45.0114C34.3121 46.1031 31.7509 45.958 30.3109 43.8377C30.6541 43.4762 31.8688 44.054 31.6113 43.2265C31.434 42.6586 30.3976 42.6477 29.9318 42.8911C30.1553 42.5675 30.5994 42.499 30.9691 42.5306L30.8776 42.2141L31.2511 42.1709V42.1691Z" fill="white"/>
<path d="M36.1303 31.5975C36.0775 31.6723 35.8757 31.6687 35.8728 31.8003L36.2491 31.7111V32.6126C35.7144 32.7802 35.7172 31.1945 35.7767 30.962C35.8049 30.8502 36.0539 30.8655 36.0615 30.7195L35.6852 30.8087L35.4956 29.0067C35.5522 28.958 35.9587 29.1166 35.8719 28.8723C35.7672 28.5767 35.5117 29.0175 35.4013 28.9156C35.6626 28.5217 35.3146 28.2125 35.3127 27.97C35.3117 27.8167 35.4947 27.6599 35.4598 27.4742C35.4249 27.2885 35.2156 27.1713 35.2165 26.9783C35.2165 26.8188 35.407 26.68 35.3834 26.5438C35.341 26.3004 34.8148 25.9984 35.3542 25.5829C35.9539 25.9092 35.4834 26.3978 35.5041 26.5159C35.5211 26.6087 35.7521 26.6917 35.7823 26.8927C35.821 27.1505 35.6163 27.3263 35.622 27.4291C35.6267 27.5174 35.853 27.6734 35.8738 27.8879C35.8927 28.0808 35.7691 28.2512 35.7804 28.4171C35.8087 28.8246 36.0002 29.5358 36.0567 29.9577C36.0935 30.2318 36.2425 31.4388 36.1303 31.5975Z" fill="white"/>
<path d="M42.9323 27.036C43.0502 27.2172 42.8182 27.5877 42.8032 27.7861C42.7786 28.0935 42.7287 28.9418 42.7513 29.2311C42.7692 29.4574 42.9408 29.6233 42.9408 29.7729C42.9408 29.9839 42.6985 30.1272 42.6919 30.2245C42.6843 30.339 42.905 30.467 42.8503 30.6293L42.4731 30.5851C42.4231 30.9187 42.5853 30.7979 42.8512 30.8105L42.8126 31.4469L42.4731 31.5777L42.7437 31.7192L42.8437 32.3764C42.5467 32.7018 42.4024 32.5287 42.474 32.1618L42.6608 32.2529V31.9815L42.475 32.0717C42.2732 31.7156 42.4627 31.4415 42.474 31.1251C42.4797 30.9782 42.3703 30.8267 42.3807 30.678C42.3967 30.4391 42.6919 30.2462 42.4722 29.9081C42.1572 29.9532 42.3411 30.568 42.2845 30.6284L41.9082 30.5383L41.9063 30.4057C42.0949 30.1479 42.077 30.0253 42.0035 29.7278L42.3797 29.8171C42.4146 29.5223 42.3967 29.525 42.0978 29.5466L42.5702 26.9324L42.9333 27.0351L42.9323 27.036Z" fill="white"/>
<path d="M36.7121 36.2978L36.4849 36.3924C36.0162 36.1067 36.4236 35.6902 36.4141 35.5414C36.4085 35.454 36.0992 35.2764 36.0813 35.0772C36.0671 34.9176 36.2736 34.7698 36.2529 34.5561C36.2359 34.3785 36.0077 34.2487 35.9898 34.0883C35.97 33.9134 36.1624 33.734 36.135 33.5744C36.0963 33.3491 35.6361 33.103 36.1114 32.7036C36.5792 32.8271 36.317 33.3031 36.3462 33.551C36.3679 33.7412 36.5518 33.88 36.5349 34.0937C36.5235 34.2361 36.3774 34.365 36.3774 34.4615C36.3755 34.6219 36.6782 34.8194 36.6857 34.9997C36.6942 35.189 36.4585 35.3999 36.4604 35.454C36.4622 35.5009 36.9536 35.9417 36.7121 36.2978Z" fill="white"/>
<path d="M37.0988 38.6515L36.6688 38.565C36.7829 38.2558 36.5754 38.1764 36.533 37.9303H36.9102C36.9734 37.6455 36.7244 37.7699 36.532 37.75C36.7725 37.467 36.0388 36.6133 36.5811 36.4889C37.0281 36.3861 36.8112 37.2506 36.8178 37.3408C36.8291 37.5057 36.9913 37.6347 37.0026 37.7996C37.0215 38.0755 36.7772 38.3306 37.0988 38.6515Z" fill="white"/>
<path d="M43.2275 25.582L43.1323 26.9333L42.5806 26.8368L42.4722 26.5745L42.8494 26.4366L42.474 26.3924C42.4816 25.984 42.8786 26.1274 42.6617 25.6721L43.2275 25.582Z" fill="white"/>
<path d="M37.3807 42.4386C38.0993 42.3944 38.7378 42.8839 38.6057 43.6105L38.2794 42.9777C37.972 42.5666 37.4345 42.5855 37.0479 42.8866C36.864 43.03 36.9064 43.2806 36.7225 43.3401C36.681 42.9398 37.0582 42.7424 37.2808 42.4729L37.0988 42.0789C37.4449 42.0456 37.4939 42.1628 37.3807 42.4386Z" fill="white"/>
<path d="M41.2472 35.2268L40.7766 35.0456L40.9661 34.2352L41.2472 34.4155C41.3735 34.1829 41.0538 34.1189 41.0548 34.0991C41.068 33.9035 41.3151 33.6529 41.1547 33.3337L41.5235 33.5573C41.25 33.7917 41.465 34.0152 41.4216 34.2568C41.3698 34.5408 41.0576 34.786 41.2472 35.2268Z" fill="white"/>
<path d="M33.1381 32.8839C32.9664 33.2463 32.8882 33.3824 33.0428 33.7845L32.6666 33.6051L32.9495 33.8755C32.7891 34.2289 32.7807 34.3993 32.808 34.7761L32.4751 34.5435C32.6335 34.2541 32.5345 33.9458 32.577 33.6538C32.6194 33.3617 32.9249 33.1408 32.6666 32.7937L33.1381 32.8839Z" fill="white"/>
<path d="M41.1538 35.3179C41.2556 35.5505 40.9775 35.4648 40.9595 35.555C40.9275 35.7172 41.0359 35.8885 41.0076 36.049C40.9756 36.2338 40.7332 36.4114 40.6974 36.5574C40.6398 36.7918 40.605 37.7401 40.5342 37.9348C40.5031 38.0205 40.2975 38.1278 40.2466 38.29C40.1957 38.4523 40.2956 38.5983 40.2617 38.7462C40.224 38.9084 40.0222 39.5872 39.7864 39.553C39.5205 39.5133 39.7619 39.3393 39.7911 39.2826C39.9486 38.9742 39.7525 39.1077 39.7393 38.7417C40.0655 39.0923 40.3485 38.6254 39.8326 38.6073C39.9901 38.3766 40.1759 38.3504 40.1268 38.0286L40.3984 38.0205L40.3994 37.7509H40.1165C40.2164 37.449 40.3796 37.3759 40.2117 37.0307L40.588 37.1199L40.3051 36.8495L40.4946 36.1292L40.8709 36.2184C40.7332 35.811 40.3362 36.0156 40.8501 35.5432L40.6832 35.2277L41.1547 35.3188L41.1538 35.3179Z" fill="white"/>
<path d="M42.7569 38.9238C42.5353 39.2501 42.8484 39.4791 42.8484 39.6891C42.8484 39.8992 42.5429 40.1867 42.7579 40.5446H42.3807V39.8252L42.756 39.6891L42.3797 39.553V38.9238H42.7569Z" fill="white"/>
<path d="M33.9858 31.8923C34.0868 32.2853 33.6332 32.1411 33.7029 32.4323H33.9858L33.8906 33.2445H33.5143C33.7737 32.7892 33.5238 32.4259 33.702 31.9518L33.9858 31.8923Z" fill="white"/>
<path d="M33.8915 33.4239C33.9321 33.5979 33.7435 33.6997 33.7199 33.8485C33.6756 34.1297 34.0792 34.8924 33.3276 34.6859L33.7048 34.5047V34.2352L33.3276 34.3254C33.4078 33.9494 33.7048 33.8539 33.5162 33.4239H33.8915Z" fill="white"/>
<path d="M32.5062 34.8392C32.5798 34.8861 32.6769 34.8707 32.7609 34.8662V34.9996C32.4129 35.2214 32.676 35.4657 32.6637 35.719C32.6533 35.939 32.4308 36.0553 32.4006 36.1941C32.3648 36.3609 32.6137 36.7206 32.3846 36.7584C32.4148 36.5601 32.2611 36.5583 32.0998 36.5781C32.0536 36.406 32.2639 36.2897 32.2761 36.158C32.2903 36.0057 32.0508 35.9453 32.1007 35.7677L32.5713 35.857C32.6071 35.6199 32.3704 35.5838 32.1941 35.5856C32.4006 35.3043 32.4072 35.0213 32.3846 34.6859C32.5336 34.649 32.4402 34.7977 32.5062 34.8392Z" fill="white"/>
<path d="M37.1931 39.644L36.8168 39.6449L36.7244 38.8372L37.0978 38.7435C37.0092 39.1221 37.0479 39.2952 37.1931 39.644Z" fill="white"/>
<path d="M42.7551 37.9348C42.6061 38.3054 42.8135 38.482 42.8503 38.8327L42.7023 38.6434L42.3807 38.7426C42.4901 38.3315 42.5504 38.2504 42.3807 37.8411L42.7551 37.9348Z" fill="white"/>
<path d="M32.1913 37.8483L32.0536 38.6524L31.7282 38.4189C31.8838 38.1377 31.8697 37.9691 31.8188 37.6608L32.1913 37.8483Z" fill="white"/>
<path d="M42.7324 33.176C42.8626 33.2923 42.8013 33.7033 42.7456 33.8638L42.3797 33.8737V33.6042L42.6626 33.5591L42.3797 33.0642C42.4759 33.1318 42.6787 33.1291 42.7315 33.1769L42.7324 33.176Z" fill="white"/>
<path d="M33.421 36.9405L33.3267 37.7509H33.0447C33.056 37.4553 33.1777 37.2308 33.0447 36.9405H33.421Z" fill="white"/>
<path d="M42.4797 35.1295L42.756 35.0465C42.6079 35.3611 42.8418 35.6749 42.8399 35.9029C42.838 36.1535 42.5787 36.424 42.756 36.7593H42.3807C42.5118 36.4429 42.591 36.369 42.3788 36.04L42.756 35.902L42.4844 35.7632L42.3788 35.0033L42.4797 35.1295Z" fill="white"/>
<path d="M34.2697 29.909C34.1226 30.2435 34.2216 30.4815 34.2235 30.8096L33.8878 30.5653L33.8991 30.0091L34.2706 29.9081L34.2697 29.909Z" fill="white"/>
<path d="M31.4406 41.987L31.0662 41.8923L31.1577 41.1765L31.533 41.3118C31.286 41.5002 31.3001 41.7355 31.4406 41.987Z" fill="white"/>
<path d="M33.3257 37.9321C33.2258 38.2513 33.1041 38.3928 33.2314 38.7426H32.8552C32.9042 38.4559 33.1098 38.3351 32.9485 38.025L33.3257 37.9321Z" fill="white"/>
<path d="M42.7569 34.1451L42.756 34.8653H42.3797C42.4533 34.5381 42.6504 34.4642 42.3807 34.146H42.7579L42.7569 34.1451Z" fill="white"/>
<path d="M34.1575 22.2673C34.1858 22.2835 34.2178 22.4421 34.3235 22.5061C34.6526 22.7072 35.1297 22.6963 35.4947 22.6062C35.5428 23.2688 35.5437 23.5149 34.7884 23.5149C33.9519 23.5149 33.7473 22.9461 33.8944 22.2456C33.9811 22.251 34.0764 22.2213 34.1575 22.2673Z" fill="white"/>
<path d="M39.0782 8.72352C38.8811 8.70819 38.8858 8.13846 38.8641 8.11051C38.7595 7.9762 38.254 7.90858 38.8905 7.77787L38.5143 7.64265C38.5737 8.15108 38.5614 8.7127 38.6152 9.21302C38.7189 10.1668 38.7802 11.043 38.8009 12.0139C38.8028 12.1194 38.7962 12.2257 38.7962 12.3312H38.5143C38.5605 11.839 38.4756 11.3459 38.4549 10.8591C38.42 10.0334 38.4049 9.2013 38.3294 8.4062C38.2908 8.00504 38.2974 7.59307 38.2323 7.19282L39.0348 7.64175L39.0791 8.72442L39.0782 8.72352Z" fill="white"/>
<path d="M39.362 21.5235L38.8924 21.5235C38.7566 20.9917 38.9122 20.5995 38.9858 20.0821C39.131 20.0604 39.0971 20.2507 39.1244 20.3534C39.2281 20.7383 39.263 21.1386 39.362 21.5235Z" fill="white"/>
<path d="M38.5133 3.04424V4.3054H38.2332C38.0663 3.85646 38.3059 3.49678 38.0409 3.09021L38.5133 3.04424Z" fill="white"/>
<path d="M39.1725 3.04514C39.0848 3.25248 39.1819 4.26934 38.8443 4.21615L38.7962 3.04514H39.1725Z" fill="white"/>
<path d="M41.5659 23.3012C41.5961 23.3472 41.7592 23.2778 41.7187 23.4166C41.2962 23.706 40.3475 22.6224 41.1029 22.6936C41.4301 22.7252 41.4235 23.084 41.5659 23.3012Z" fill="white"/>
<path d="M36.9903 22.6179C37.1412 22.8171 36.5283 23.3364 36.4387 23.2363L36.482 22.5124C36.6141 22.306 36.8281 22.5855 36.9894 22.617L36.9903 22.6179Z" fill="white"/>
<path d="M38.2776 20.2633C38.0343 20.4697 37.8749 21.2504 38.3238 21.254L38.2776 20.2633Z" fill="white"/>
<path d="M45.6803 42.8911C45.8982 42.9092 46.4951 42.3133 46.3395 42.1691H45.3031C45.3201 41.3713 46.5385 41.3073 46.894 41.9545C47.2901 42.6757 46.3112 43.6421 45.6803 42.8911Z" fill="white"/>
<path d="M43.0399 41.8968L42.9314 41.4605C41.8233 41.4245 42.0657 42.0041 43.0399 41.8968Z" fill="white"/>
</svg>
